<?xml version="1.0" standalone="no"?>
<!DOCTYPE svg PUBLIC "-//W3C//DTD SVG 20010904//EN"
 "http://www.w3.org/TR/2001/REC-SVG-20010904/DTD/svg10.dtd">
<svg version="1.0" xmlns="http://www.w3.org/2000/svg"
 width="700.000000pt" height="700.000000pt" viewBox="0 0 700.000000 700.000000"
 preserveAspectRatio="xMidYMid meet">
<metadata>
Created by potrace 1.11, written by Peter Selinger 2001-2013
</metadata>
<g transform="translate(0.000000,700.000000) scale(0.100000,-0.100000)"
fill="#000000" stroke="none">
<path d="M3457 6564 c-1 -1 -59 -4 -128 -8 -69 -3 -159 -10 -200 -16 -41 -6
-87 -12 -104 -15 -84 -11 -296 -59 -411 -93 -420 -127 -790 -332 -1143 -637
-195 -168 -441 -461 -586 -701 -67 -110 -185 -338 -185 -358 0 -9 -3 -16 -8
-16 -4 0 -12 -15 -18 -32 -7 -18 -35 -97 -63 -176 -92 -257 -145 -511 -166
-797 -6 -71 -6 -381 0 -435 2 -25 7 -72 10 -105 9 -91 29 -228 40 -265 2 -8 7
-28 10 -45 22 -127 114 -426 167 -543 141 -314 253 -502 429 -723 587 -738
1460 -1160 2399 -1160 170 0 273 8 475 36 174 24 505 114 660 180 197 83 335
154 495 254 97 60 282 193 319 230 9 9 37 32 61 52 50 41 178 165 256 249 249
270 481 653 609 1006 29 79 91 280 100 324 2 8 8 35 14 60 5 25 13 61 16 80 3
19 8 42 10 50 4 17 9 48 24 165 33 255 27 637 -14 855 -2 8 -10 56 -20 105
-81 438 -277 880 -555 1250 -116 154 -163 208 -292 337 -338 336 -750 589
-1203 739 -38 13 -72 24 -75 24 -3 1 -23 7 -45 13 -44 13 -242 58 -290 66
-152 25 -243 36 -359 42 -129 7 -226 10 -229 8z m-1176 -1927 c188 -35 302
-77 407 -149 l42 -29 46 31 c111 77 278 129 464 145 57 5 274 5 320 1 116 -12
257 -45 326 -76 24 -11 46 -20 49 -20 16 0 148 -96 190 -138 106 -105 196
-292 220 -457 2 -16 7 -48 11 -70 4 -22 8 -374 9 -782 l2 -743 -166 0 c-221 0
-297 21 -359 95 -55 68 -55 67 -58 745 -1 344 -4 643 -7 665 -12 85 -64 173
-131 223 -103 76 -361 85 -484 17 -78 -43 -133 -125 -150 -225 -3 -19 -6 -367
-6 -772 l0 -738 -36 -1 c-157 -3 -523 1 -528 6 -3 3 -6 342 -6 753 -1 692 -3
751 -19 802 -51 154 -161 227 -350 234 -235 8 -368 -81 -402 -269 -3 -16 -5
-366 -6 -776 l0 -745 -284 0 c-194 0 -285 3 -288 10 -2 6 -2 337 -1 736 2 778
3 810 54 979 90 302 300 474 665 544 67 13 413 16 476 4z m3647 -314 c1 -161
-1 -294 -5 -294 -5 -1 -62 -2 -128 -4 -233 -4 -328 -33 -417 -126 -37 -38 -90
-138 -104 -194 -5 -17 -9 -280 -11 -585 -2 -305 -4 -602 -6 -660 l-2 -105
-282 0 c-246 -1 -282 1 -285 15 -7 29 -1 1246 6 1305 8 71 16 119 22 149 3 11
7 32 10 46 9 48 56 175 86 235 70 140 190 270 320 347 58 34 238 113 238 103
0 -2 21 3 48 11 65 20 138 32 252 41 41 3 76 6 77 7 1 1 41 1 90 1 l88 0 3
-292z"/>
</g>
</svg>
