<svg width="48" height="49" viewBox="0 0 48 49" fill="none" xmlns="http://www.w3.org/2000/svg">
<g clip-path="url(#clip0_849_18146)">
<path fill-rule="evenodd" clip-rule="evenodd" d="M13.9576 22.9788C14.0002 22.9235 14.0469 22.8703 14.0976 22.8196L22.7847 14.1325C23.3208 13.5965 24.1898 13.5965 24.7258 14.1325C25.2618 14.6685 25.2618 15.5375 24.7258 16.0736L17.7835 23.0159H33.6268C34.3849 23.0159 34.9994 23.6304 34.9994 24.3884C34.9994 25.1465 34.3849 25.761 33.6268 25.761H17.7248L24.7258 32.762C25.2618 33.298 25.2618 34.167 24.7258 34.703C24.1898 35.239 23.3207 35.239 22.7847 34.703L13.714 25.6323C13.0485 24.9668 13.0485 23.8878 13.714 23.2224L13.9576 22.9788Z" fill="#06C987"/>
</g>
<defs>
<clipPath id="clip0_849_18146">
<rect width="21.9608" height="21.9608" fill="white" transform="translate(13.0391 13.4082)"/>
</clipPath>
</defs>
</svg>
