<svg width="42" height="61" viewBox="0 0 42 61" fill="none" xmlns="http://www.w3.org/2000/svg">
<path fill-rule="evenodd" clip-rule="evenodd" d="M41.6744 28.5715V3.42857C41.6744 1.53571 40.1189 0 38.2016 0H3.47287C1.55556 0 0 1.53571 0 3.42857V28.5715C0 30.4643 1.55556 32.0001 3.47287 32.0001H38.2016C40.1189 32.0001 41.6744 30.4643 41.6744 28.5715ZM16.6945 15.7767C16.6945 12.9474 18.6602 10.6542 21.0852 10.6542C23.5101 10.6542 25.4759 12.9474 25.4759 15.7767C25.4759 18.6064 23.5092 20.8992 21.0852 20.8992C18.6602 20.8992 16.6945 18.6055 16.6945 15.7767ZM22.5487 18.7038C22.7509 18.7038 22.9146 18.5401 22.9146 18.3379V17.6061C22.9146 17.404 22.7509 17.2402 22.5487 17.2402H21.8169V13.2154C21.8169 13.0133 21.6532 12.8495 21.451 12.8495H20.8299C20.6133 12.8495 20.4015 12.9137 20.2212 13.0339L19.5201 13.5013C19.4801 13.5279 19.4457 13.5621 19.4189 13.602C19.3922 13.6419 19.3736 13.6867 19.3641 13.7338C19.3547 13.781 19.3547 13.8295 19.364 13.8766C19.3733 13.9237 19.3918 13.9685 19.4185 14.0085L19.8247 14.6173C19.8513 14.6572 19.8855 14.6916 19.9254 14.7184C19.9653 14.7451 20.0101 14.7637 20.0572 14.7732C20.1043 14.7826 20.1528 14.7826 20.2 14.7733C20.2471 14.764 20.2919 14.7455 20.3319 14.7188L20.3534 14.7046V17.2402H19.6216C19.4194 17.2402 19.2557 17.404 19.2557 17.6061V18.3379C19.2557 18.5401 19.4194 18.7038 19.6216 18.7038H22.5487ZM7.91306 6.99528H34.2572C35.0654 6.99528 35.7208 7.65068 35.7208 8.45884V23.0945C35.7208 23.9027 35.0654 24.5581 34.2572 24.5581H7.91306C7.10489 24.5581 6.44949 23.9027 6.44949 23.0945V8.45884C6.44949 7.65068 7.10489 6.99528 7.91306 6.99528ZM30.5983 22.3627C30.5983 20.7459 31.9087 19.4356 33.5255 19.4356V12.1178C31.9087 12.1178 30.5983 10.8074 30.5983 9.19063H11.572C11.572 10.8074 10.2616 12.1178 8.64484 12.1178V19.4356C10.2616 19.4356 11.572 20.7459 11.572 22.3627H30.5983Z" fill="#356363"/>
<path d="M2.672 47.1C2.672 46.1387 2.882 45.28 3.302 44.524C3.722 43.7587 4.296 43.166 5.024 42.746C5.752 42.3167 6.564 42.102 7.46 42.102C8.552 42.102 9.48533 42.3633 10.26 42.886C11.044 43.3993 11.6133 44.1273 11.968 45.07H10.82C10.54 44.4073 10.1107 43.8893 9.532 43.516C8.96267 43.1427 8.272 42.956 7.46 42.956C6.74133 42.956 6.09267 43.124 5.514 43.46C4.94467 43.796 4.49667 44.2813 4.17 44.916C3.84333 45.5413 3.68 46.2693 3.68 47.1C3.68 47.9307 3.84333 48.6587 4.17 49.284C4.49667 49.9093 4.94467 50.39 5.514 50.726C6.09267 51.062 6.74133 51.23 7.46 51.23C8.272 51.23 8.96267 51.048 9.532 50.684C10.1107 50.3107 10.54 49.7973 10.82 49.144H11.968C11.6133 50.0773 11.044 50.8007 10.26 51.314C9.476 51.8273 8.54267 52.084 7.46 52.084C6.564 52.084 5.752 51.874 5.024 51.454C4.296 51.0247 3.722 50.432 3.302 49.676C2.882 48.92 2.672 48.0613 2.672 47.1ZM13.4728 48.164C13.4728 47.38 13.6268 46.694 13.9348 46.106C14.2521 45.5087 14.6861 45.0513 15.2368 44.734C15.7968 44.4073 16.4268 44.244 17.1268 44.244C17.8548 44.244 18.4801 44.412 19.0028 44.748C19.5348 45.084 19.9174 45.5133 20.1508 46.036V44.356H21.1308V52H20.1508V50.306C19.9081 50.8287 19.5208 51.2627 18.9888 51.608C18.4661 51.944 17.8408 52.112 17.1128 52.112C16.4221 52.112 15.7968 51.9487 15.2368 51.622C14.6861 51.2953 14.2521 50.8333 13.9348 50.236C13.6268 49.6387 13.4728 48.948 13.4728 48.164ZM20.1508 48.178C20.1508 47.562 20.0248 47.0207 19.7728 46.554C19.5208 46.0873 19.1754 45.728 18.7368 45.476C18.3074 45.224 17.8314 45.098 17.3088 45.098C16.7674 45.098 16.2821 45.2193 15.8528 45.462C15.4234 45.7047 15.0828 46.0593 14.8308 46.526C14.5881 46.9833 14.4668 47.5293 14.4668 48.164C14.4668 48.7893 14.5881 49.34 14.8308 49.816C15.0828 50.2827 15.4234 50.642 15.8528 50.894C16.2821 51.1367 16.7674 51.258 17.3088 51.258C17.8314 51.258 18.3074 51.132 18.7368 50.88C19.1754 50.628 19.5208 50.2687 19.7728 49.802C20.0248 49.3353 20.1508 48.794 20.1508 48.178ZM26 52.112C25.1227 52.112 24.404 51.9113 23.844 51.51C23.2934 51.0993 22.9854 50.544 22.92 49.844H23.928C23.9747 50.2733 24.1754 50.6233 24.53 50.894C24.894 51.1553 25.3794 51.286 25.986 51.286C26.518 51.286 26.9334 51.16 27.232 50.908C27.54 50.656 27.694 50.3433 27.694 49.97C27.694 49.7087 27.61 49.494 27.442 49.326C27.274 49.158 27.0594 49.0273 26.798 48.934C26.546 48.8313 26.2007 48.724 25.762 48.612C25.1927 48.4627 24.7307 48.3133 24.376 48.164C24.0214 48.0147 23.718 47.7953 23.466 47.506C23.2234 47.2073 23.102 46.8107 23.102 46.316C23.102 45.9427 23.214 45.5973 23.438 45.28C23.662 44.9627 23.9794 44.7107 24.39 44.524C24.8007 44.3373 25.2674 44.244 25.79 44.244C26.6114 44.244 27.274 44.454 27.778 44.874C28.282 45.2847 28.5527 45.854 28.59 46.582H27.61C27.582 46.134 27.4047 45.7747 27.078 45.504C26.7607 45.224 26.322 45.084 25.762 45.084C25.2674 45.084 24.866 45.2007 24.558 45.434C24.25 45.6673 24.096 45.9567 24.096 46.302C24.096 46.6007 24.1847 46.848 24.362 47.044C24.5487 47.2307 24.7774 47.38 25.048 47.492C25.3187 47.5947 25.6827 47.7113 26.14 47.842C26.6907 47.9913 27.1294 48.136 27.456 48.276C27.7827 48.416 28.0627 48.6213 28.296 48.892C28.5294 49.1627 28.6507 49.522 28.66 49.97C28.66 50.3807 28.548 50.7493 28.324 51.076C28.1 51.3933 27.7874 51.6453 27.386 51.832C26.9847 52.0187 26.5227 52.112 26 52.112ZM34.1448 44.216C34.7234 44.216 35.2414 44.3373 35.6988 44.58C36.1654 44.8227 36.5294 45.196 36.7908 45.7C37.0614 46.1947 37.1968 46.8013 37.1968 47.52V52H36.2308V47.632C36.2308 46.8013 36.0208 46.1667 35.6008 45.728C35.1901 45.2893 34.6254 45.07 33.9068 45.07C33.1694 45.07 32.5814 45.3033 32.1428 45.77C31.7041 46.2367 31.4848 46.9227 31.4848 47.828V52H30.5048V41.64H31.4848V45.658C31.7274 45.2007 32.0821 44.846 32.5488 44.594C33.0248 44.342 33.5568 44.216 34.1448 44.216Z" fill="#437D7D"/>
</svg>
