<svg width="672" height="574" viewBox="0 0 672 574" fill="none" xmlns="http://www.w3.org/2000/svg">
<rect x="433.23" y="-195.992" width="476.672" height="751.476" rx="238.336" transform="rotate(45 433.23 -195.992)" fill="#DADBDA"/>
<g filter="url(#filter0_dddddd_851_19467)">
<path d="M191.082 455.525C191.082 455.525 262.334 499.558 350.261 473.579C438.187 447.604 499.025 371.122 549.996 310.345C600.966 249.57 599.806 176.135 549.384 131.718C498.962 87.3003 447.001 125.103 364.166 109.347C281.332 93.59 262.166 77.3794 182.248 107.327C102.33 137.273 62.4309 240.615 95.8735 330.878C129.316 421.139 191.082 455.525 191.082 455.525Z" fill="#06C987"/>
<g opacity="0.699997">
<g opacity="0.699997">
<path opacity="0.699997" d="M191.082 455.525C191.082 455.525 262.334 499.558 350.261 473.579C438.187 447.604 499.025 371.122 549.996 310.345C600.966 249.57 599.806 176.135 549.384 131.718C498.962 87.3003 447.001 125.103 364.166 109.347C281.332 93.59 262.166 77.3794 182.248 107.327C102.33 137.273 62.4309 240.615 95.8735 330.878C129.316 421.139 191.082 455.525 191.082 455.525Z" fill="#F0FFF9"/>
</g>
</g>
<g opacity="0.199997">
<g opacity="0.199997">
<path opacity="0.199997" d="M359.606 320.444L314.978 153.889C313.993 150.215 316.358 146.39 320.259 145.344L396.334 124.96C400.235 123.915 404.195 126.045 405.18 129.72L449.808 296.275C450.792 299.949 448.429 303.775 444.528 304.821L368.453 325.205C364.552 326.25 360.59 324.119 359.606 320.444Z" fill="#003346"/>
</g>
</g>
<path d="M355.252 319.321L310.624 152.766C309.64 149.092 312.004 145.265 315.905 144.22L391.979 123.836C395.88 122.791 399.842 124.922 400.826 128.597L445.454 295.152C446.439 298.826 444.074 302.653 440.173 303.698L364.099 324.082C360.198 325.127 356.237 322.995 355.252 319.321Z" fill="#B6B6B6"/>
<path d="M355.252 319.321L310.624 152.766C309.64 149.092 312.004 145.265 315.905 144.22L391.979 123.836C395.88 122.791 399.842 124.922 400.826 128.597L445.454 295.152C446.439 298.826 444.074 302.653 440.173 303.698L364.099 324.082C360.198 325.127 356.237 322.995 355.252 319.321Z" stroke="#1A2E35" stroke-width="1.29398" stroke-miterlimit="10" stroke-linecap="round" stroke-linejoin="round"/>
<path d="M391.978 123.835L315.905 144.219C312.003 145.264 309.638 149.091 310.623 152.765L311.711 156.826L401.913 132.657L400.825 128.596C399.84 124.921 395.879 122.79 391.978 123.835Z" fill="#06C987"/>
<path d="M391.978 123.835L315.905 144.219C312.003 145.264 309.638 149.091 310.623 152.765L311.711 156.826L401.913 132.657L400.825 128.596C399.84 124.921 395.879 122.79 391.978 123.835Z" stroke="#1A2E35" stroke-width="1.29398" stroke-miterlimit="10" stroke-linecap="round" stroke-linejoin="round"/>
<path d="M400.839 237.536L343.143 252.996L319.353 164.213L377.05 148.754L400.839 237.536Z" fill="#1A2E35" stroke="#1A2E35" stroke-width="1.29398" stroke-miterlimit="10" stroke-linecap="round" stroke-linejoin="round"/>
<path d="M354.471 316.407L355.252 319.32C356.237 322.995 360.198 325.127 364.099 324.082L440.173 303.698C444.074 302.653 446.439 298.826 445.454 295.151L444.673 292.237L354.471 316.407Z" fill="#06C987"/>
<path d="M354.471 316.407L355.252 319.32C356.237 322.995 360.198 325.127 364.099 324.082L440.173 303.698C444.074 302.653 446.439 298.826 445.454 295.151L444.673 292.237L354.471 316.407Z" stroke="#1A2E35" stroke-width="1.29398" stroke-miterlimit="10" stroke-linecap="round" stroke-linejoin="round"/>
<path d="M407.244 282.577L389.367 287.367L394.289 305.736L412.166 300.946L407.244 282.577Z" stroke="#1A2E35" stroke-width="1.29398" stroke-miterlimit="10" stroke-linecap="round" stroke-linejoin="round"/>
<path d="M403.183 283.666C402.446 280.919 399.485 279.325 396.567 280.107C393.651 280.889 391.882 283.75 392.618 286.497C393.354 289.246 396.317 290.839 399.233 290.057C402.151 289.275 403.919 286.415 403.183 283.666Z" stroke="#1A2E35" stroke-width="1.29398" stroke-miterlimit="10" stroke-linecap="round" stroke-linejoin="round"/>
<path d="M394.943 280.543L384.587 241.892L394.943 280.543Z" fill="#F0FFF9"/>
<path d="M394.943 280.543L384.587 241.892" stroke="#1A2E35" stroke-width="1.29398" stroke-miterlimit="10" stroke-linecap="round" stroke-linejoin="round"/>
<path d="M368.208 279.913L351.549 284.377L346.217 264.478L362.876 260.014L368.208 279.913Z" stroke="#1A2E35" stroke-width="1.29398" stroke-miterlimit="10" stroke-linecap="round" stroke-linejoin="round"/>
<path d="M405.793 312.91L422.045 308.555L419.481 298.987L403.229 303.342L405.793 312.91Z" fill="#1A2E35" stroke="#1A2E35" stroke-width="1.29398" stroke-miterlimit="10" stroke-linecap="round" stroke-linejoin="round"/>
<path d="M364.256 173.285L355.611 175.602L351.404 200.348L358.702 198.392L355.912 222.324L368.348 189.74L360.62 191.811L364.256 173.285Z" fill="#06C987"/>
<g opacity="0.199997">
<g opacity="0.199997">
<path opacity="0.199997" d="M243.923 369.925L257.175 366.374L279.938 451.33L266.687 454.881C262.786 455.926 258.825 453.794 257.84 450.12L238.642 378.471C237.657 374.797 240.022 370.97 243.923 369.925Z" fill="#003346"/>
</g>
</g>
<path d="M241.052 368.698L254.303 365.148L277.067 450.103L263.816 453.654C259.915 454.699 255.954 452.569 254.969 448.894L235.771 377.244C234.786 373.57 237.151 369.744 241.052 368.698Z" fill="#06C987"/>
<path d="M241.052 368.698L254.303 365.148L277.067 450.103L263.816 453.654C259.915 454.699 255.954 452.569 254.969 448.894L235.771 377.244C234.786 373.57 237.151 369.744 241.052 368.698Z" stroke="#1A2E35" stroke-width="1.29398" stroke-miterlimit="10" stroke-linecap="round" stroke-linejoin="round"/>
<g opacity="0.199997">
<g opacity="0.199997">
<path opacity="0.199997" d="M501.974 301.076L488.722 304.626L498.518 341.182C499.553 339.997 500.958 339.081 502.626 338.634C506.889 337.492 511.218 339.822 512.294 343.838C513.37 347.853 510.786 352.035 506.523 353.177C504.855 353.624 503.18 353.534 501.691 353.025L511.486 389.582L524.738 386.031C528.64 384.986 531.003 381.159 530.019 377.485L510.821 305.836C509.836 302.162 505.876 300.03 501.974 301.076Z" fill="#003346"/>
</g>
</g>
<path d="M499.132 299.546L485.881 303.097L495.676 339.654C496.71 338.468 498.117 337.553 499.785 337.106C504.048 335.964 508.377 338.294 509.453 342.31C510.529 346.325 507.944 350.507 503.681 351.649C502.014 352.096 500.337 352.006 498.849 351.497L508.645 388.053L521.896 384.502C525.797 383.457 528.162 379.631 527.177 375.956L507.979 304.307C506.994 300.633 503.033 298.501 499.132 299.546Z" fill="#06C987"/>
<path d="M499.132 299.546L485.881 303.097L495.676 339.654C496.71 338.468 498.117 337.553 499.785 337.106C504.048 335.964 508.377 338.294 509.453 342.31C510.529 346.325 507.944 350.507 503.681 351.649C502.014 352.096 500.337 352.006 498.849 351.497L508.645 388.053L521.896 384.502C525.797 383.457 528.162 379.631 527.177 375.956L507.979 304.307C506.994 300.633 503.033 298.501 499.132 299.546Z" stroke="#1A2E35" stroke-width="1.29398" stroke-miterlimit="10" stroke-linecap="round" stroke-linejoin="round"/>
<g opacity="0.199997">
<g opacity="0.199997">
<path opacity="0.199997" d="M485.372 397.342L308.532 444.727C304.631 445.772 300.67 443.64 299.686 439.966L280.488 368.317C279.503 364.642 281.867 360.816 285.768 359.771L462.608 312.387C466.509 311.341 470.471 313.473 471.455 317.147L490.653 388.796C491.638 392.47 489.273 396.297 485.372 397.342Z" fill="#003346"/>
</g>
</g>
<path d="M480.069 395.71L303.23 443.093C299.329 444.139 295.368 442.008 294.383 438.333L275.185 366.684C274.2 363.01 276.565 359.183 280.466 358.138L457.305 310.754C461.206 309.709 465.168 311.84 466.152 315.514L485.351 387.163C486.335 390.839 483.97 394.664 480.069 395.71Z" fill="#1A2E35"/>
<path d="M480.069 395.71L303.23 443.093C299.329 444.139 295.368 442.008 294.383 438.333L275.185 366.684C274.2 363.01 276.565 359.183 280.466 358.138L457.305 310.754C461.206 309.709 465.168 311.84 466.152 315.514L485.351 387.163C486.335 390.839 483.97 394.664 480.069 395.71Z" stroke="#1A2E35" stroke-width="1.29398" stroke-miterlimit="10" stroke-linecap="round" stroke-linejoin="round"/>
<path d="M477.359 394.397L304.922 440.601C301.019 441.647 297.059 439.515 296.075 435.841L277.896 367.996C276.911 364.321 279.275 360.495 283.177 359.449L455.614 313.245C459.516 312.199 463.476 314.331 464.461 318.006L482.64 385.851C483.625 389.525 481.261 393.351 477.359 394.397Z" fill="#06C987"/>
<path d="M477.359 394.397L304.922 440.601C301.019 441.647 297.059 439.515 296.075 435.841L277.896 367.996C276.911 364.321 279.275 360.495 283.177 359.449L455.614 313.245C459.516 312.199 463.476 314.331 464.461 318.006L482.64 385.851C483.625 389.525 481.261 393.351 477.359 394.397Z" stroke="#1A2E35" stroke-width="1.29398" stroke-miterlimit="10" stroke-linecap="round" stroke-linejoin="round"/>
<path d="M438.059 402.454L310.775 436.56C306.571 437.686 302.302 435.39 301.241 431.43L284.78 369.997C283.719 366.038 286.268 361.914 290.472 360.788L417.756 326.682L438.059 402.454Z" fill="#B6B6B6"/>
<path d="M438.059 402.454L310.775 436.56C306.571 437.686 302.302 435.39 301.241 431.43L284.78 369.997C283.719 366.038 286.268 361.914 290.472 360.788L417.756 326.682L438.059 402.454Z" stroke="#1A2E35" stroke-width="1.29398" stroke-miterlimit="10" stroke-linecap="round" stroke-linejoin="round"/>
<path d="M469.148 352.698C468.412 349.949 465.45 348.356 462.532 349.138C459.616 349.919 457.848 352.78 458.585 355.528C459.321 358.276 462.283 359.87 465.198 359.089C468.117 358.307 469.884 355.445 469.148 352.698Z" fill="#1A2E35"/>
<path d="M469.148 352.698C468.412 349.949 465.45 348.356 462.532 349.138C459.616 349.919 457.848 352.78 458.585 355.528C459.321 358.276 462.283 359.87 465.198 359.089C468.117 358.307 469.884 355.445 469.148 352.698Z" stroke="#1A2E35" stroke-width="1.29398" stroke-miterlimit="10" stroke-linecap="round" stroke-linejoin="round"/>
<path d="M445.779 400.386L442.123 401.365L438.227 386.824L441.883 385.844L445.779 400.386Z" stroke="#1A2E35" stroke-width="1.29398" stroke-miterlimit="10" stroke-linecap="round" stroke-linejoin="round"/>
<path d="M439.832 378.188L436.176 379.168L432.279 364.627L435.936 363.647L439.832 378.188Z" stroke="#1A2E35" stroke-width="1.29398" stroke-miterlimit="10" stroke-linecap="round" stroke-linejoin="round"/>
<path d="M308.983 294.818C309.276 295.91 308.57 297.053 307.409 297.365L298.275 299.812L292.978 280.043L302.111 277.595C303.273 277.284 304.455 277.92 304.748 279.013L308.983 294.818ZM265.992 287.273L290.402 280.733L295.699 300.502L271.289 307.043L265.992 287.273ZM301.461 275.169L265.342 284.847L264.847 282.999C264.577 281.993 263.494 281.411 262.427 281.697C261.361 281.983 260.714 283.028 260.983 284.034L268.776 313.118C269.045 314.122 270.129 314.706 271.196 314.42C272.262 314.134 272.909 313.087 272.64 312.083L271.939 309.469L308.059 299.791C310.64 299.099 312.21 296.559 311.559 294.128L307.324 278.323C306.673 275.892 304.042 274.478 301.461 275.169Z" fill="#1A2E35"/>
<path d="M269.496 241.147L254.389 245.195L262.49 275.428L288.9 268.351L283.414 247.877L269.496 241.147Z" fill="#06C987"/>
<path d="M269.496 241.147L254.389 245.195L262.49 275.428L288.9 268.351L283.414 247.877L269.496 241.147Z" stroke="#1A2E35" stroke-width="1.29398" stroke-miterlimit="10" stroke-linecap="round" stroke-linejoin="round"/>
<path d="M278.166 266.503L268.6 269.066C266.812 269.545 264.998 268.569 264.546 266.884L261.65 256.075C261.199 254.391 262.282 252.639 264.07 252.16L273.636 249.596C275.424 249.117 277.24 250.093 277.691 251.777L280.587 262.586C281.038 264.271 279.954 266.024 278.166 266.503Z" fill="#F0FFF9"/>
<path d="M278.166 266.503L268.6 269.066C266.812 269.545 264.998 268.569 264.546 266.884L261.65 256.075C261.199 254.391 262.282 252.639 264.07 252.16L273.636 249.596C275.424 249.117 277.24 250.093 277.691 251.777L280.587 262.586C281.038 264.271 279.954 266.024 278.166 266.503Z" stroke="#1A2E35" stroke-width="1.29398" stroke-miterlimit="10" stroke-linecap="round" stroke-linejoin="round"/>
<path d="M268.773 251.223L273.227 267.842" stroke="#1A2E35" stroke-width="1.29398" stroke-miterlimit="10" stroke-linecap="round" stroke-linejoin="round"/>
<path d="M263.18 261.789L279.061 257.534" stroke="#1A2E35" stroke-width="1.29398" stroke-miterlimit="10" stroke-linecap="round" stroke-linejoin="round"/>
<path d="M269.176 268.765L268.167 264.998C267.606 262.907 268.951 260.729 271.171 260.134L271.313 260.096C273.533 259.501 275.787 260.714 276.347 262.806L277.394 266.71" stroke="#1A2E35" stroke-width="1.29398" stroke-miterlimit="10" stroke-linecap="round" stroke-linejoin="round"/>
<path d="M273.096 250.672L274.105 254.44C274.666 256.532 273.321 258.71 271.101 259.305L270.959 259.343C268.739 259.938 266.485 258.724 265.924 256.632L264.878 252.727" stroke="#1A2E35" stroke-width="1.29398" stroke-miterlimit="10" stroke-linecap="round" stroke-linejoin="round"/>
<g opacity="0.199997">
<g opacity="0.199997">
<path opacity="0.199997" d="M517.147 154.213C517.058 153.878 516.696 153.683 516.341 153.779L490.806 160.621C490.449 160.716 490.235 161.065 490.324 161.4L495.09 179.187C495.135 179.352 495.247 179.482 495.388 179.562L517.159 239.531C517.169 239.557 517.18 239.583 517.193 239.607L534.201 303.079C534.251 303.268 534.392 303.405 534.566 303.475L543.684 323.28C543.813 323.56 544.14 323.704 544.456 323.62L545.411 323.364L558.706 369.54C558.943 370.367 559.854 370.847 560.735 370.611C561.616 370.375 562.166 369.505 561.96 368.669L550.384 322.031L551.378 321.765C551.695 321.68 551.906 321.392 551.878 321.085L549.871 299.376C549.987 299.226 550.041 299.038 549.99 298.848L532.983 235.377C532.983 235.35 532.979 235.321 532.975 235.294L521.842 172.471C521.927 172.332 521.957 172.164 521.914 172L517.147 154.213Z" fill="#003346"/>
</g>
</g>
<path d="M557.303 370.879C556.766 371.023 556.221 370.736 556.076 370.234L541.395 319.238L545.259 318.202L558.042 369.707C558.168 370.214 557.839 370.735 557.303 370.879Z" fill="#F0FFF9"/>
<path d="M557.303 370.879C556.766 371.023 556.221 370.736 556.076 370.234L541.395 319.238L545.259 318.202L558.042 369.707C558.168 370.214 557.839 370.735 557.303 370.879Z" stroke="#1A2E35" stroke-width="1.29398" stroke-miterlimit="10"/>
<path d="M517.857 173.141L492.63 179.901L514.515 240.186L514.53 240.182L531.572 303.782L546.074 299.896L529.032 236.296L529.048 236.292L517.857 173.141Z" fill="#1A2E35"/>
<path d="M517.857 173.141L492.63 179.901L514.515 240.186L514.53 240.182L531.572 303.782L546.074 299.896L529.032 236.296L529.048 236.292L517.857 173.141Z" stroke="#1A2E35" stroke-width="1.29398" stroke-miterlimit="10" stroke-linecap="round" stroke-linejoin="round"/>
<path d="M517.998 173.048L492.463 179.891L487.697 162.103L513.232 155.261L517.998 173.048Z" fill="#06C987" stroke="#1A2E35" stroke-width="1.29398" stroke-miterlimit="10" stroke-linecap="round" stroke-linejoin="round"/>
<path d="M547.945 322.033L541.022 323.888L531.786 303.826L545.914 300.041L547.945 322.033Z" fill="#06C987"/>
<path d="M547.945 322.033L541.022 323.888L531.786 303.826L545.914 300.041L547.945 322.033Z" stroke="#1A2E35" stroke-width="1.29398" stroke-miterlimit="10" stroke-linecap="round" stroke-linejoin="round"/>
<g opacity="0.199997">
<g opacity="0.199997">
<path opacity="0.199997" d="M197.557 421.876C197.648 422.034 197.729 422.166 197.801 422.275C197.769 422.317 197.735 422.36 197.7 422.407C197.645 422.384 197.594 422.364 197.546 422.343C197.554 422.213 197.558 422.058 197.557 421.876ZM178.83 264.712C178.783 264.562 178.677 264.437 178.535 264.361C177.867 264.002 177.399 264.219 177.179 264.38C175.52 265.598 177.295 272.947 182.405 292.091C185.489 303.649 188.986 316.75 190.324 325.622C193.342 345.639 195.038 376.295 194.271 396.932C194.048 402.926 194.272 407.606 194.705 411.231C193.268 407.875 191.122 403.71 187.932 398.63C176.948 381.142 163.089 353.745 155.695 334.901C152.417 326.549 148.895 313.454 145.787 301.903C140.641 282.769 138.503 275.516 136.458 275.291C136.189 275.261 135.674 275.307 135.274 275.953C135.189 276.09 135.159 276.251 135.194 276.404C135.331 277.032 149.022 339.395 160.734 363.958C165.956 374.912 171.465 385.889 176.791 396.506C183.48 409.834 189.254 421.344 192.774 429.456C197.768 440.966 201.8 456.144 203.302 462.135C203.495 462.904 203.996 463.544 204.711 463.936C205.429 464.329 206.276 464.425 207.093 464.206L210.464 463.303C211.281 463.084 211.967 462.578 212.392 461.877C212.815 461.18 212.93 460.376 212.712 459.614C211.017 453.676 206.92 438.516 205.49 426.049C204.482 417.264 203.728 404.408 202.856 389.522C202.161 377.664 201.443 365.403 200.488 353.305C198.349 326.178 179.025 265.324 178.83 264.712Z" fill="#003346"/>
</g>
</g>
<path d="M175.463 265.979C170.624 263.376 185.141 305.964 188.25 326.582C191.359 347.201 192.961 377.648 192.203 398.003C191.446 418.357 195.887 423.342 195.887 423.342C195.887 423.342 195.581 423.721 195.18 424.264C194.56 423.994 194.106 423.82 194.106 423.82C194.106 423.82 195.46 417.281 184.627 400.033C173.793 382.784 159.956 355.615 152.34 336.204C144.723 316.794 136.001 272.653 133.113 277.327C133.113 277.327 146.791 339.966 158.609 364.752C170.426 389.537 184.341 415.71 190.658 430.269C195.703 441.895 199.781 457.305 201.218 463.041C201.532 464.294 202.874 465.023 204.2 464.668L207.57 463.765C208.895 463.41 209.695 462.107 209.34 460.865C207.717 455.179 203.543 439.794 202.098 427.203C200.289 411.437 199.253 381.813 197.095 354.439C194.937 327.066 175.463 265.979 175.463 265.979Z" fill="#1A2E35"/>
<path d="M175.463 265.979C170.624 263.376 185.141 305.964 188.25 326.582C191.359 347.201 192.961 377.648 192.203 398.003C191.446 418.357 195.887 423.342 195.887 423.342C195.887 423.342 195.581 423.721 195.18 424.264C194.56 423.994 194.106 423.82 194.106 423.82C194.106 423.82 195.46 417.281 184.627 400.033C173.793 382.784 159.956 355.615 152.34 336.204C144.723 316.794 136.001 272.653 133.113 277.327C133.113 277.327 146.791 339.966 158.609 364.752C170.426 389.537 184.341 415.71 190.658 430.269C195.703 441.895 199.781 457.305 201.218 463.041C201.532 464.294 202.874 465.023 204.2 464.668L207.57 463.765C208.895 463.41 209.695 462.107 209.34 460.865C207.717 455.179 203.543 439.794 202.098 427.203C200.289 411.437 199.253 381.813 197.095 354.439C194.937 327.066 175.463 265.979 175.463 265.979Z" stroke="#1A2E35" stroke-width="1.29398" stroke-miterlimit="10" stroke-linecap="round" stroke-linejoin="round"/>
<g opacity="0.199997">
<g opacity="0.199997">
<path opacity="0.199997" d="M463.901 48.3331C464.648 15.5178 468.595 -14.2573 469.664 -22.3378L416.541 -10.1668C416.541 -10.1668 411.239 31.1795 407.912 43.1451C404.587 55.1116 397.687 60.2404 389.671 66.0806C381.655 71.9193 360.462 93.5943 359.563 99.9883C358.662 106.382 360.433 124.365 359.534 130.757C358.633 137.152 354.577 141.519 347.776 145.393C346.443 146.152 345.087 146.886 343.783 147.599C343.752 147.617 343.722 147.633 343.692 147.65C343.253 147.889 342.824 148.127 342.402 148.36C342.171 148.49 341.94 148.618 341.713 148.747C341.565 148.831 341.421 148.913 341.278 148.996C341.067 149.116 340.86 149.235 340.658 149.355C340.516 149.438 340.375 149.521 340.237 149.604C340.028 149.729 339.825 149.854 339.624 149.979C339.508 150.051 339.388 150.124 339.275 150.196C338.975 150.386 338.686 150.574 338.412 150.762C338.359 150.8 338.312 150.836 338.26 150.873C338.04 151.027 337.827 151.18 337.626 151.333C337.538 151.401 337.458 151.466 337.375 151.533C337.218 151.658 337.069 151.783 336.928 151.906C336.849 151.975 336.771 152.046 336.696 152.117C336.561 152.242 336.438 152.369 336.32 152.495C336.264 152.556 336.202 152.618 336.15 152.679C335.993 152.863 335.85 153.045 335.736 153.228C335.724 153.245 335.72 153.263 335.708 153.282C335.609 153.447 335.53 153.611 335.469 153.774C335.447 153.833 335.435 153.892 335.418 153.951C335.384 154.076 335.359 154.2 335.349 154.323C335.343 154.389 335.343 154.453 335.343 154.517C335.345 154.642 335.366 154.766 335.397 154.892C335.41 154.948 335.418 155.006 335.438 155.063C335.5 155.241 335.583 155.421 335.705 155.6C337.848 158.717 350.245 157.856 361.619 153.168C372.991 148.479 376.64 144.222 379.068 138.649C381.495 133.077 384.922 121.494 387.053 119.693L389.182 117.891C389.182 117.891 399.748 158.947 401.894 163.704C404.039 168.462 404.185 186.88 400.782 209.94C399.452 218.958 400.205 226.282 401.823 231.981C401.832 232.014 401.842 232.045 401.85 232.076C402.35 233.824 402.931 235.414 403.556 236.853C403.563 236.866 403.567 236.877 403.573 236.889C404.206 238.333 404.882 239.625 405.572 240.764C405.576 240.77 405.581 240.776 405.583 240.781C405.804 241.146 406.026 241.495 406.249 241.829C406.263 241.847 406.276 241.868 406.289 241.888C406.746 242.568 407.199 243.184 407.643 243.733L407.679 243.777C407.878 244.019 408.072 244.249 408.266 244.465C408.305 244.509 408.342 244.551 408.381 244.593C408.561 244.794 408.737 244.982 408.911 245.158C408.937 245.183 408.963 245.213 408.989 245.237C409.187 245.437 409.38 245.622 409.568 245.791C409.587 245.81 409.606 245.824 409.627 245.843C409.785 245.983 409.938 246.112 410.086 246.231C410.136 246.272 410.184 246.309 410.233 246.348C410.353 246.44 410.469 246.525 410.582 246.603C410.626 246.634 410.671 246.667 410.716 246.696C410.863 246.793 411.005 246.882 411.135 246.952C414.698 248.868 420.386 247.344 421.297 245.87C422.208 244.395 417.293 229.305 417.066 218.703C416.839 208.099 423.984 177.883 426.611 171.438C429.239 164.991 431.554 155.756 431.554 155.756C431.554 155.756 433.933 172.757 431.138 194.834C428.345 216.91 423.299 232.208 423.21 238.384C423.123 244.561 430.142 246.371 433.388 243.86C436.634 241.35 440.252 223.973 441.662 217.855C443.07 211.735 447.71 196.547 447.71 196.547C447.71 196.547 454.925 195.843 458.262 188.796C458.668 187.941 459.092 186.981 459.522 185.961C461.255 185.737 463.646 185.077 466.381 183.339C471.963 179.793 470.019 174.162 470.918 167.768C471.281 165.189 472.275 162.582 473.328 160.38C475.001 158.335 476.369 156.269 476.58 154.767C477.024 151.616 473.262 130.111 470.844 113.582C467.355 99.1161 463.258 76.5483 463.901 48.3331Z" fill="#003346"/>
</g>
</g>
<path d="M468.84 151.64C468.84 151.64 464.079 158.247 463.178 164.641C462.278 171.035 464.223 176.666 458.64 180.212C453.058 183.759 448.889 182.825 448.889 182.825C448.889 182.825 450.688 170.039 452.507 165.45C454.326 160.861 468.84 151.64 468.84 151.64Z" fill="#06C987"/>
<g opacity="0.5">
<g opacity="0.5">
<path opacity="0.5" d="M468.84 151.64C468.84 151.64 464.079 158.247 463.178 164.641C462.278 171.035 464.223 176.666 458.64 180.212C453.058 183.759 448.889 182.825 448.889 182.825C448.889 182.825 450.688 170.039 452.507 165.45C454.326 160.861 468.84 151.64 468.84 151.64Z" fill="#F0FFF9"/>
</g>
</g>
<path d="M468.84 151.64C468.84 151.64 464.079 158.247 463.178 164.641C462.278 171.035 464.223 176.666 458.64 180.212C453.058 183.759 448.889 182.825 448.889 182.825C448.889 182.825 450.688 170.039 452.507 165.45C454.326 160.861 468.84 151.64 468.84 151.64Z" stroke="#1A2E35" stroke-width="1.29398" stroke-miterlimit="10" stroke-linecap="round" stroke-linejoin="round"/>
<path d="M408.801 -13.2926C408.801 -13.2926 403.499 28.0537 400.172 40.0193C396.846 51.9858 389.947 57.1147 381.93 62.9549C373.915 68.7935 352.722 90.4686 351.823 96.8614C350.922 103.256 352.693 121.239 351.794 127.632C350.893 134.025 346.837 138.393 340.035 142.266C333.236 146.14 325.822 149.356 327.965 152.474C330.107 155.591 342.504 154.73 353.878 150.042C365.251 145.354 368.9 141.095 371.327 135.523C373.753 129.951 377.181 118.368 379.313 116.567L381.442 114.765C381.442 114.765 392.008 155.821 394.154 160.579C396.3 165.336 396.445 183.754 393.041 206.814C389.64 229.874 399.833 241.909 403.395 243.827C406.958 245.743 412.646 244.218 413.557 242.743C414.468 241.269 409.554 226.179 409.325 215.577C409.097 204.973 416.244 174.757 418.871 168.312C421.499 161.865 423.814 152.632 423.814 152.632C423.814 152.632 426.193 169.631 423.398 191.708C420.604 213.784 415.557 229.083 415.47 235.258C415.383 241.435 422.401 243.244 425.648 240.735C428.894 238.224 432.513 220.847 433.921 214.729C435.331 208.609 439.97 193.42 439.97 193.42C439.97 193.42 447.184 192.718 450.523 185.67C453.86 178.624 458.402 164.692 458.402 164.692C458.402 164.692 468.24 155.904 468.84 151.641C469.44 147.379 462.337 109.495 461.29 95.8312C460.24 82.1665 459.664 52.3801 460.345 40.3031C461.029 28.2253 474.837 -26.8851 474.837 -26.8851" fill="#F0FFF9"/>
<path d="M371.327 135.524C373.752 129.952 377.181 118.369 379.312 116.568L381.441 114.766C381.441 114.766 372.425 105.367 368.581 115.063C364.739 124.76 359.403 139.191 351.892 142.071C346.691 144.064 341.381 144.009 336.042 144.474C330.697 147.398 326.242 149.969 327.964 152.475C330.107 155.591 342.505 154.73 353.878 150.042C365.251 145.355 368.9 141.096 371.327 135.524Z" fill="#06C987"/>
<path d="M393.62 227.085C395.993 237.081 401.085 242.583 403.395 243.827C406.957 245.743 412.646 244.218 413.556 242.743C414.469 241.269 409.554 226.179 409.325 215.577C409.097 204.973 416.244 174.757 418.871 168.312C421.498 161.865 423.814 152.63 423.814 152.63C423.814 152.63 418.761 171.822 411.058 184.286C404.234 195.328 393.545 208.094 393.62 227.085Z" fill="#06C987"/>
<path d="M466.278 9.1465C466.278 9.1465 461.166 27.8503 449.202 55.3245C437.239 82.7988 443.965 111.331 444.639 124.152C445.314 136.972 450.064 147.833 444.087 163.302C438.108 178.772 434.916 190.894 434.916 190.894L423.816 152.631C423.816 152.631 426.194 169.631 423.399 191.707C420.605 213.785 415.557 229.083 415.472 235.259C415.384 241.434 422.401 243.245 425.647 240.734C428.895 238.225 432.513 220.847 433.921 214.729C435.331 208.608 439.971 193.42 439.971 193.42C439.971 193.42 447.186 192.717 450.524 185.671C453.86 178.623 458.404 164.692 458.404 164.692C458.404 164.692 468.241 155.903 468.84 151.641C469.441 147.378 462.339 109.496 461.29 95.8309C460.242 82.167 459.663 52.3798 460.346 40.3024C460.663 34.7156 463.463 21.7042 466.382 9.33316L466.278 9.1465Z" fill="#06C987"/>
<g opacity="0.5">
<g opacity="0.5">
<path opacity="0.5" d="M371.327 135.524C373.752 129.952 377.181 118.369 379.312 116.568L381.441 114.766C381.441 114.766 372.425 105.367 368.581 115.063C364.739 124.76 359.403 139.191 351.892 142.071C346.691 144.064 341.381 144.009 336.042 144.474C330.697 147.398 326.242 149.969 327.964 152.475C330.107 155.591 342.505 154.73 353.878 150.042C365.251 145.355 368.9 141.096 371.327 135.524Z" fill="#F0FFF9"/>
</g>
<g opacity="0.5">
<path opacity="0.5" d="M393.62 227.085C395.993 237.081 401.085 242.583 403.395 243.827C406.957 245.743 412.646 244.218 413.556 242.743C414.469 241.269 409.554 226.179 409.325 215.577C409.097 204.973 416.244 174.757 418.871 168.312C421.498 161.865 423.814 152.63 423.814 152.63C423.814 152.63 418.761 171.822 411.058 184.286C404.234 195.328 393.545 208.094 393.62 227.085Z" fill="#F0FFF9"/>
</g>
<g opacity="0.5">
<path opacity="0.5" d="M466.278 9.1465C466.278 9.1465 461.166 27.8503 449.202 55.3245C437.239 82.7988 443.965 111.331 444.639 124.152C445.314 136.972 450.064 147.833 444.087 163.302C438.108 178.772 434.916 190.894 434.916 190.894L423.816 152.631C423.816 152.631 426.194 169.631 423.399 191.707C420.605 213.785 415.557 229.083 415.472 235.259C415.384 241.434 422.401 243.245 425.647 240.734C428.895 238.225 432.513 220.847 433.921 214.729C435.331 208.608 439.971 193.42 439.971 193.42C439.971 193.42 447.186 192.717 450.524 185.671C453.86 178.623 458.404 164.692 458.404 164.692C458.404 164.692 468.241 155.903 468.84 151.641C469.441 147.378 462.339 109.496 461.29 95.8309C460.242 82.167 459.663 52.3798 460.346 40.3024C460.663 34.7156 463.463 21.7042 466.382 9.33316L466.278 9.1465Z" fill="#F0FFF9"/>
</g>
</g>
<path d="M408.801 -13.2926C408.801 -13.2926 403.499 28.0537 400.172 40.0193C396.846 51.9858 389.947 57.1147 381.93 62.9549C373.915 68.7935 352.722 90.4686 351.823 96.8614C350.922 103.256 352.693 121.239 351.794 127.632C350.893 134.025 346.837 138.393 340.035 142.266C333.236 146.14 325.822 149.356 327.965 152.474C330.107 155.591 342.504 154.73 353.878 150.042C365.251 145.354 368.9 141.095 371.327 135.523C373.753 129.951 377.181 118.368 379.313 116.567L381.442 114.765C381.442 114.765 392.008 155.821 394.154 160.579C396.3 165.336 396.445 183.754 393.041 206.814C389.64 229.874 399.833 241.909 403.395 243.827C406.958 245.743 412.646 244.218 413.557 242.743C414.468 241.269 409.554 226.179 409.325 215.577C409.097 204.973 416.244 174.757 418.871 168.312C421.499 161.865 423.814 152.632 423.814 152.632C423.814 152.632 426.193 169.631 423.398 191.708C420.604 213.784 415.557 229.083 415.47 235.258C415.383 241.435 422.401 243.244 425.648 240.735C428.894 238.224 432.513 220.847 433.921 214.729C435.331 208.609 439.97 193.42 439.97 193.42C439.97 193.42 447.184 192.718 450.523 185.67C453.86 178.624 458.402 164.692 458.402 164.692C458.402 164.692 468.24 155.904 468.84 151.641C469.44 147.379 462.337 109.495 461.29 95.8312C460.24 82.1665 459.664 52.3801 460.345 40.3031C461.029 28.2253 474.837 -26.8851 474.837 -26.8851" stroke="#1A2E35" stroke-width="1.29398" stroke-miterlimit="10" stroke-linecap="round" stroke-linejoin="round"/>
<path d="M424.715 145.959C424.715 145.959 427.716 143.422 427.057 137.531C426.399 131.64 425.099 126.788 425.099 126.788" stroke="#1A2E35" stroke-width="1.29398" stroke-miterlimit="10" stroke-linecap="round" stroke-linejoin="round"/>
<path d="M439.969 193.42C439.969 193.42 446.822 168.615 448.546 166.923C450.27 165.23 455.848 160.045 454.819 154.578C453.79 149.111 452.454 142.497 452.454 142.497" stroke="#1A2E35" stroke-width="1.29398" stroke-miterlimit="10" stroke-linecap="round" stroke-linejoin="round"/>
<path d="M168.75 54.1641C168.75 54.1641 195.091 97.0204 199.474 101.998C203.855 106.976 221.756 112.024 227.985 123.89C234.212 135.756 239.305 140.134 245.119 148.83C250.933 157.526 253.777 156.764 251.054 166.107C248.332 175.45 248.852 180.643 253.436 184.747C258.02 188.851 276.422 190.892 275.415 195.264C274.409 199.635 272.686 201.327 271.061 201.762L269.435 202.198C269.435 202.198 276.475 213.847 275.675 218.983C274.873 224.12 270.819 228.488 268.577 226.628C266.338 224.767 262.57 222.085 262.57 222.085C262.57 222.085 267.461 227.336 263.603 229.19C259.744 231.045 258.624 230.115 251.812 229.068C245 228.023 230.467 229.046 230.467 229.046C230.467 229.046 215.855 239.523 210.983 242.47C206.111 245.416 199.097 245.245 199.097 245.245C199.097 245.245 183.369 256.431 179.089 251.836C174.809 247.241 166.83 225.589 164.484 221.706C162.137 217.824 157.15 215.468 156.22 208.745C155.29 202.022 156.296 197.65 155.984 194.862C155.672 192.075 153.214 140.643 150.343 129.928C147.472 119.213 113.208 70.9708 113.208 70.9708" fill="#F0FFF9"/>
<path d="M168.75 54.1641C168.75 54.1641 195.091 97.0204 199.474 101.998C203.855 106.976 221.756 112.024 227.985 123.89C234.212 135.756 239.305 140.134 245.119 148.83C250.933 157.526 253.777 156.764 251.054 166.107C248.332 175.45 248.852 180.643 253.436 184.747C258.02 188.851 276.422 190.892 275.415 195.264C274.409 199.635 272.686 201.327 271.061 201.762L269.435 202.198C269.435 202.198 276.475 213.847 275.675 218.983C274.873 224.12 270.819 228.488 268.577 226.628C266.338 224.767 262.57 222.085 262.57 222.085C262.57 222.085 267.461 227.336 263.603 229.19C259.744 231.045 258.624 230.115 251.812 229.068C245 228.023 230.467 229.046 230.467 229.046C230.467 229.046 215.855 239.523 210.983 242.47C206.111 245.416 199.097 245.245 199.097 245.245C199.097 245.245 183.369 256.431 179.089 251.836C174.809 247.241 166.83 225.589 164.484 221.706C162.137 217.824 157.15 215.468 156.22 208.745C155.29 202.022 156.296 197.65 155.984 194.862C155.672 192.075 153.214 140.643 150.343 129.928C147.472 119.213 113.208 70.9708 113.208 70.9708" stroke="#1A2E35" stroke-width="1.29398" stroke-miterlimit="10" stroke-linecap="round" stroke-linejoin="round"/>
<path d="M211.974 145.407C211.974 145.407 225.346 169.305 231.361 177.127C237.377 184.948 243.494 193.154 248.48 195.508C253.465 197.864 267.296 200.721 269.434 202.199" stroke="#1A2E35" stroke-width="1.29398" stroke-miterlimit="10" stroke-linecap="round" stroke-linejoin="round"/>
<path d="M191.63 181.622C191.63 181.622 227.067 209.861 232.159 214.238C237.252 218.616 248.223 215.676 251.682 217.21C255.142 218.746 262.569 222.087 262.569 222.087" stroke="#1A2E35" stroke-width="1.29398" stroke-miterlimit="10" stroke-linecap="round" stroke-linejoin="round"/>
<path d="M169.511 198.212C169.511 198.212 183.865 207.901 196.187 218.135C208.51 228.368 210.143 231.212 214.92 231.163C219.697 231.113 230.467 229.047 230.467 229.047" stroke="#1A2E35" stroke-width="1.29398" stroke-miterlimit="10" stroke-linecap="round" stroke-linejoin="round"/>
<path d="M166.206 220.016C166.206 220.016 191.255 238.734 193.801 241.742C196.35 244.752 199.095 245.247 199.095 245.247" stroke="#1A2E35" stroke-width="1.29398" stroke-miterlimit="10" stroke-linecap="round" stroke-linejoin="round"/>
<path d="M184.659 157.237C184.659 157.237 177.255 163.734 179.396 166.851C181.539 169.968 184.493 172.869 184.493 172.869" stroke="#1A2E35" stroke-width="1.29398" stroke-miterlimit="10" stroke-linecap="round" stroke-linejoin="round"/>
<path d="M165.392 176.346C165.392 176.346 158.288 180.711 159.009 185.029C159.731 189.348 162.685 192.247 162.685 192.247" stroke="#1A2E35" stroke-width="1.29398" stroke-miterlimit="10" stroke-linecap="round" stroke-linejoin="round"/>
<path d="M326.774 192.863L266.746 208.947L265.013 202.478L325.041 186.394L326.774 192.863Z" fill="#F0FFF9" stroke="#1A2E35" stroke-width="1.29398" stroke-miterlimit="10" stroke-linecap="round" stroke-linejoin="round"/>
<g opacity="0.199997">
<g opacity="0.199997">
<path opacity="0.199997" d="M175.908 65.1446C175.908 65.1446 207.56 102.347 211.942 107.326C216.324 112.304 234.226 117.352 240.455 129.218C246.682 141.084 251.775 145.462 257.589 154.158C263.402 162.854 266.246 162.092 263.524 171.434C260.802 180.777 261.322 185.97 265.906 190.074C270.489 194.177 288.892 196.219 287.885 200.592C286.879 204.963 285.155 206.655 283.531 207.09L281.904 207.526C281.904 207.526 288.945 219.174 288.145 224.311C287.343 229.448 283.287 233.816 281.047 231.955C278.806 230.094 275.04 227.412 275.04 227.412C275.04 227.412 279.931 232.664 276.073 234.518C272.214 236.372 271.094 235.441 264.282 234.396C257.47 233.351 242.937 234.373 242.937 234.373C242.937 234.373 228.324 244.851 223.453 247.797C218.581 250.743 211.567 250.572 211.567 250.572C211.567 250.572 195.839 261.759 191.558 257.164C187.279 252.568 179.3 230.917 176.954 227.034C174.606 223.151 169.62 220.796 168.69 214.071C167.759 207.348 168.765 202.977 168.454 200.19C168.142 197.403 165.684 145.971 162.813 135.255C159.942 124.541 125.677 76.299 125.677 76.299" fill="#003346"/>
</g>
</g>
<path d="M168.75 54.1641C168.75 54.1641 195.091 97.0204 199.474 101.998C203.855 106.976 221.756 112.024 227.985 123.89C234.212 135.756 239.305 140.134 245.119 148.83C250.933 157.526 253.777 156.764 251.054 166.107C248.332 175.45 248.852 180.643 253.436 184.747C258.02 188.851 276.422 190.892 275.415 195.264C274.409 199.635 272.686 201.327 271.061 201.762L269.435 202.198C269.435 202.198 276.475 213.847 275.675 218.983C274.873 224.12 270.819 228.488 268.577 226.628C266.338 224.767 262.57 222.085 262.57 222.085C262.57 222.085 267.461 227.336 263.603 229.19C259.744 231.045 258.624 230.115 251.812 229.068C245 228.023 230.467 229.046 230.467 229.046C230.467 229.046 215.855 239.523 210.983 242.47C206.111 245.416 199.097 245.245 199.097 245.245C199.097 245.245 183.369 256.431 179.089 251.836C174.809 247.241 166.83 225.589 164.484 221.706C162.137 217.824 157.15 215.468 156.22 208.745C155.29 202.022 156.296 197.65 155.984 194.862C155.672 192.075 153.214 140.643 150.343 129.928C147.472 119.213 113.208 70.9708 113.208 70.9708" fill="#F0FFF9"/>
<path d="M208.637 235.924C200.484 239.841 193.803 241.742 193.803 241.742C193.803 241.742 196.537 250.825 179.087 251.837C183.368 256.432 199.096 245.246 199.096 245.246C199.096 245.246 206.11 245.416 210.982 242.472C215.854 239.526 230.466 229.047 230.466 229.047C230.466 229.047 244.998 228.024 251.811 229.069C258.624 230.116 259.744 231.045 263.602 229.191C267.46 227.338 262.569 222.086 262.569 222.086C262.569 222.086 266.336 224.768 268.576 226.629C270.817 228.489 274.872 224.121 275.674 218.984C276.475 213.848 269.433 202.199 269.433 202.199L271.06 201.763C272.684 201.328 274.409 199.636 275.416 195.264C276.421 190.893 258.019 188.852 253.435 184.748C248.852 180.644 248.331 175.451 251.054 166.109C253.775 156.766 250.932 157.528 245.117 148.831C239.305 140.135 234.211 135.757 227.984 123.891C222.345 113.149 207.141 107.994 201.059 103.421C205.856 109.7 211.91 116.67 218.68 122.292C235.251 136.053 240.443 151.996 239.392 161.811C238.341 171.628 236.857 179.826 236.857 179.826L218.119 157.978C218.119 157.978 226.337 181.778 231.288 186.518C236.24 191.258 239.69 197.268 247.001 200.509C254.31 203.751 264.413 207.11 257.545 208.951C250.675 210.791 232.159 214.237 232.159 214.237C232.159 214.237 235.663 220.014 226.217 222.545C216.773 225.076 205.82 225.411 205.82 225.411C205.82 225.411 216.79 232.006 208.637 235.924Z" fill="#06C987"/>
<g opacity="0.5">
<g opacity="0.5">
<path opacity="0.5" d="M208.637 235.924C200.484 239.841 193.803 241.742 193.803 241.742C193.803 241.742 196.537 250.825 179.087 251.837C183.368 256.432 199.096 245.246 199.096 245.246C199.096 245.246 206.11 245.416 210.982 242.472C215.854 239.526 230.466 229.047 230.466 229.047C230.466 229.047 244.998 228.024 251.811 229.069C258.624 230.116 259.744 231.045 263.602 229.191C267.46 227.338 262.569 222.086 262.569 222.086C262.569 222.086 266.336 224.768 268.576 226.629C270.817 228.489 274.872 224.121 275.674 218.984C276.475 213.848 269.433 202.199 269.433 202.199L271.06 201.763C272.684 201.328 274.409 199.636 275.416 195.264C276.421 190.893 258.019 188.852 253.435 184.748C248.852 180.644 248.331 175.451 251.054 166.109C253.775 156.766 250.932 157.528 245.117 148.831C239.305 140.135 234.211 135.757 227.984 123.891C222.345 113.149 207.141 107.994 201.059 103.421C205.856 109.7 211.91 116.67 218.68 122.292C235.251 136.053 240.443 151.996 239.392 161.811C238.341 171.628 236.857 179.826 236.857 179.826L218.119 157.978C218.119 157.978 226.337 181.778 231.288 186.518C236.24 191.258 239.69 197.268 247.001 200.509C254.31 203.751 264.413 207.11 257.545 208.951C250.675 210.791 232.159 214.237 232.159 214.237C232.159 214.237 235.663 220.014 226.217 222.545C216.773 225.076 205.82 225.411 205.82 225.411C205.82 225.411 216.79 232.006 208.637 235.924Z" fill="#F0FFF9"/>
</g>
</g>
<path d="M168.749 54.1661C168.749 54.1661 195.089 97.0224 199.472 102C203.853 106.978 221.754 112.026 227.983 123.892C234.21 135.758 239.303 140.136 245.117 148.832C250.932 157.528 253.775 156.766 251.052 166.109C248.33 175.452 248.85 180.645 253.434 184.749C258.018 188.853 276.42 190.894 275.413 195.266C274.407 199.637 272.684 201.329 271.059 201.764L269.433 202.2C269.433 202.2 276.473 213.849 275.673 218.985C274.871 224.122 270.817 228.49 268.575 226.63C266.336 224.769 262.568 222.087 262.568 222.087C262.568 222.087 267.459 227.338 263.601 229.192C259.742 231.046 258.622 230.117 251.81 229.07C244.998 228.025 230.465 229.048 230.465 229.048C230.465 229.048 215.853 239.525 210.981 242.471C206.109 245.418 199.095 245.247 199.095 245.247C199.095 245.247 183.367 256.433 179.087 251.838C174.807 247.243 166.828 225.591 164.482 221.708C162.135 217.826 157.148 215.47 156.218 208.747C155.288 202.024 156.294 197.652 155.982 194.864C155.67 192.077 153.212 140.645 150.341 129.93C147.47 119.215 113.206 70.9728 113.206 70.9728" stroke="#1A2E35" stroke-width="1.29398" stroke-miterlimit="10" stroke-linecap="round" stroke-linejoin="round"/>
<path d="M211.974 145.409C211.974 145.409 225.346 169.307 231.361 177.129C237.377 184.95 243.494 193.156 248.48 195.51C253.465 197.866 267.296 200.723 269.434 202.201" stroke="#1A2E35" stroke-width="1.29398" stroke-miterlimit="10" stroke-linecap="round" stroke-linejoin="round"/>
<path d="M191.628 181.622C191.628 181.622 227.065 209.861 232.157 214.238C237.25 218.616 248.221 215.676 251.68 217.21C255.14 218.746 262.567 222.087 262.567 222.087" stroke="#1A2E35" stroke-width="1.29398" stroke-miterlimit="10" stroke-linecap="round" stroke-linejoin="round"/>
<path d="M169.509 198.212C169.509 198.212 183.863 207.901 196.185 218.135C208.508 228.368 210.141 231.212 214.918 231.163C219.695 231.113 230.465 229.047 230.465 229.047" stroke="#1A2E35" stroke-width="1.29398" stroke-miterlimit="10" stroke-linecap="round" stroke-linejoin="round"/>
<path d="M166.206 220.016C166.206 220.016 191.255 238.734 193.801 241.742C196.35 244.752 199.095 245.247 199.095 245.247" stroke="#1A2E35" stroke-width="1.29398" stroke-miterlimit="10" stroke-linecap="round" stroke-linejoin="round"/>
<path d="M184.659 157.239C184.659 157.239 177.255 163.736 179.396 166.853C181.539 169.97 184.493 172.871 184.493 172.871" stroke="#1A2E35" stroke-width="1.29398" stroke-miterlimit="10" stroke-linecap="round" stroke-linejoin="round"/>
<path d="M165.392 176.346C165.392 176.346 158.288 180.711 159.009 185.029C159.731 189.348 162.685 192.247 162.685 192.247" stroke="#1A2E35" stroke-width="1.29398" stroke-miterlimit="10" stroke-linecap="round" stroke-linejoin="round"/>
</g>
<defs>
<filter id="filter0_dddddd_851_19467" x="24.0078" y="-27.5332" width="623.707" height="642.314" filterUnits="userSpaceOnUse" color-interpolation-filters="sRGB">
<feFlood flood-opacity="0" result="BackgroundImageFix"/>
<feColorMatrix in="SourceAlpha" type="matrix" values="0 0 0 0 0 0 0 0 0 0 0 0 0 0 0 0 0 0 127 0" result="hardAlpha"/>
<feOffset dy="2.0201"/>
<feGaussianBlur stdDeviation="0.830177"/>
<feColorMatrix type="matrix" values="0 0 0 0 0 0 0 0 0 0 0 0 0 0 0 0 0 0 0.0281146 0"/>
<feBlend mode="normal" in2="BackgroundImageFix" result="effect1_dropShadow_851_19467"/>
<feColorMatrix in="SourceAlpha" type="matrix" values="0 0 0 0 0 0 0 0 0 0 0 0 0 0 0 0 0 0 127 0" result="hardAlpha"/>
<feOffset dy="4.85457"/>
<feGaussianBlur stdDeviation="1.99503"/>
<feColorMatrix type="matrix" values="0 0 0 0 0 0 0 0 0 0 0 0 0 0 0 0 0 0 0.0403893 0"/>
<feBlend mode="normal" in2="effect1_dropShadow_851_19467" result="effect2_dropShadow_851_19467"/>
<feColorMatrix in="SourceAlpha" type="matrix" values="0 0 0 0 0 0 0 0 0 0 0 0 0 0 0 0 0 0 127 0" result="hardAlpha"/>
<feOffset dy="9.14073"/>
<feGaussianBlur stdDeviation="3.75647"/>
<feColorMatrix type="matrix" values="0 0 0 0 0 0 0 0 0 0 0 0 0 0 0 0 0 0 0.05 0"/>
<feBlend mode="normal" in2="effect2_dropShadow_851_19467" result="effect3_dropShadow_851_19467"/>
<feColorMatrix in="SourceAlpha" type="matrix" values="0 0 0 0 0 0 0 0 0 0 0 0 0 0 0 0 0 0 127 0" result="hardAlpha"/>
<feOffset dy="16.3055"/>
<feGaussianBlur stdDeviation="6.70089"/>
<feColorMatrix type="matrix" values="0 0 0 0 0 0 0 0 0 0 0 0 0 0 0 0 0 0 0.0596107 0"/>
<feBlend mode="normal" in2="effect3_dropShadow_851_19467" result="effect4_dropShadow_851_19467"/>
<feColorMatrix in="SourceAlpha" type="matrix" values="0 0 0 0 0 0 0 0 0 0 0 0 0 0 0 0 0 0 127 0" result="hardAlpha"/>
<feOffset dy="30.4977"/>
<feGaussianBlur stdDeviation="12.5333"/>
<feColorMatrix type="matrix" values="0 0 0 0 0 0 0 0 0 0 0 0 0 0 0 0 0 0 0.0718854 0"/>
<feBlend mode="normal" in2="effect4_dropShadow_851_19467" result="effect5_dropShadow_851_19467"/>
<feColorMatrix in="SourceAlpha" type="matrix" values="0 0 0 0 0 0 0 0 0 0 0 0 0 0 0 0 0 0 127 0" result="hardAlpha"/>
<feOffset dy="73"/>
<feGaussianBlur stdDeviation="30"/>
<feColorMatrix type="matrix" values="0 0 0 0 0 0 0 0 0 0 0 0 0 0 0 0 0 0 0.1 0"/>
<feBlend mode="normal" in2="effect5_dropShadow_851_19467" result="effect6_dropShadow_851_19467"/>
<feBlend mode="normal" in="SourceGraphic" in2="effect6_dropShadow_851_19467" result="shape"/>
</filter>
</defs>
</svg>
