<svg width="414" height="539" viewBox="0 0 414 539" fill="none" xmlns="http://www.w3.org/2000/svg">
<mask id="mask0_852_20754" style="mask-type:alpha" maskUnits="userSpaceOnUse" x="-49" y="75" width="517" height="518">
<rect x="283.941" width="366.653" height="578.03" rx="183.326" transform="rotate(45 283.941 0)" fill="#C4C4C4"/>
</mask>
<g mask="url(#mask0_852_20754)">
<rect x="283.939" width="366.653" height="578.03" rx="183.326" transform="rotate(45 283.939 0)" fill="#DADBDA"/>
<g filter="url(#filter0_dddddd_852_20754)">
<path d="M97.683 501.14C97.683 501.14 152.49 535.01 220.123 515.027C287.755 495.047 334.551 436.218 373.757 389.469C412.963 342.721 412.071 286.235 373.287 252.07C334.502 217.904 294.534 246.982 230.818 234.862C167.103 222.742 152.36 210.273 90.8885 233.309C29.4163 256.343 -1.274 335.833 24.4498 405.262C50.1733 474.691 97.683 501.14 97.683 501.14Z" fill="#06C987"/>
<g opacity="0.699997">
<g opacity="0.699997">
<path opacity="0.699997" d="M97.685 501.14C97.685 501.14 152.492 535.01 220.125 515.027C287.757 495.047 334.553 436.218 373.759 389.469C412.965 342.721 412.073 286.235 373.289 252.07C334.504 217.904 294.536 246.982 230.82 234.862C167.105 222.742 152.362 210.273 90.8904 233.309C29.4183 256.343 -1.27205 335.833 24.4517 405.262C50.1753 474.691 97.685 501.14 97.685 501.14Z" fill="#F0FFF9"/>
</g>
</g>
<g opacity="0.199997">
<g opacity="0.199997">
<path opacity="0.199997" d="M227.314 397.244L192.987 269.131C192.229 266.305 194.049 263.362 197.049 262.558L255.566 246.879C258.566 246.075 261.612 247.714 262.369 250.54L296.697 378.653C297.454 381.479 295.636 384.422 292.636 385.226L234.119 400.905C231.119 401.709 228.072 400.07 227.314 397.244Z" fill="#003346"/>
</g>
</g>
<path d="M223.961 396.376L189.633 268.264C188.876 265.437 190.695 262.494 193.695 261.69L252.211 246.011C255.211 245.207 258.258 246.846 259.016 249.672L293.343 377.785C294.101 380.612 292.282 383.555 289.281 384.359L230.766 400.038C227.765 400.842 224.718 399.203 223.961 396.376Z" fill="#B6B6B6"/>
<path d="M223.961 396.376L189.633 268.264C188.876 265.437 190.695 262.494 193.695 261.69L252.211 246.011C255.211 245.207 258.258 246.846 259.016 249.672L293.343 377.785C294.101 380.612 292.282 383.555 289.281 384.359L230.766 400.038C227.765 400.842 224.718 399.203 223.961 396.376Z" stroke="#1A2E35" stroke-width="0.995318" stroke-miterlimit="10" stroke-linecap="round" stroke-linejoin="round"/>
<path d="M252.211 246.008L193.697 261.687C190.695 262.491 188.876 265.435 189.634 268.261L190.471 271.385L259.853 252.794L259.016 249.67C258.259 246.844 255.212 245.204 252.211 246.008Z" fill="#06C987"/>
<path d="M252.211 246.008L193.697 261.687C190.695 262.491 188.876 265.435 189.634 268.261L190.471 271.385L259.853 252.794L259.016 249.67C258.259 246.844 255.212 245.204 252.211 246.008Z" stroke="#1A2E35" stroke-width="0.995318" stroke-miterlimit="10" stroke-linecap="round" stroke-linejoin="round"/>
<path d="M259.026 333.468L214.646 345.359L196.348 277.068L240.728 265.177L259.026 333.468Z" fill="#1A2E35" stroke="#1A2E35" stroke-width="0.995318" stroke-miterlimit="10" stroke-linecap="round" stroke-linejoin="round"/>
<path d="M223.36 394.134L223.961 396.376C224.718 399.203 227.765 400.842 230.766 400.038L289.281 384.359C292.282 383.555 294.101 380.612 293.343 377.785L292.743 375.543L223.36 394.134Z" fill="#06C987"/>
<path d="M223.36 394.134L223.961 396.376C224.718 399.203 227.765 400.842 230.766 400.038L289.281 384.359C292.282 383.555 294.101 380.612 293.343 377.785L292.743 375.543L223.36 394.134Z" stroke="#1A2E35" stroke-width="0.995318" stroke-miterlimit="10" stroke-linecap="round" stroke-linejoin="round"/>
<path d="M263.953 368.111L250.202 371.796L253.988 385.926L267.739 382.241L263.953 368.111Z" stroke="#1A2E35" stroke-width="0.995318" stroke-miterlimit="10" stroke-linecap="round" stroke-linejoin="round"/>
<path d="M260.829 368.95C260.263 366.837 257.985 365.611 255.74 366.213C253.498 366.814 252.137 369.014 252.703 371.128C253.27 373.242 255.548 374.467 257.791 373.866C260.036 373.265 261.396 371.065 260.829 368.95Z" stroke="#1A2E35" stroke-width="0.995318" stroke-miterlimit="10" stroke-linecap="round" stroke-linejoin="round"/>
<path d="M254.492 366.547L246.526 336.817L254.492 366.547Z" fill="#F0FFF9"/>
<path d="M254.492 366.547L246.526 336.817" stroke="#1A2E35" stroke-width="0.995318" stroke-miterlimit="10" stroke-linecap="round" stroke-linejoin="round"/>
<path d="M233.927 366.063L221.113 369.496L217.012 354.19L229.826 350.756L233.927 366.063Z" stroke="#1A2E35" stroke-width="0.995318" stroke-miterlimit="10" stroke-linecap="round" stroke-linejoin="round"/>
<path d="M262.838 391.443L275.339 388.094L273.367 380.734L260.866 384.084L262.838 391.443Z" fill="#1A2E35" stroke="#1A2E35" stroke-width="0.995318" stroke-miterlimit="10" stroke-linecap="round" stroke-linejoin="round"/>
<path d="M230.887 284.045L224.237 285.827L221.001 304.862L226.615 303.357L224.469 321.766L234.034 296.702L228.09 298.295L230.887 284.045Z" fill="#06C987"/>
<g opacity="0.199997">
<g opacity="0.199997">
<path opacity="0.199997" d="M138.332 435.302L148.525 432.571L166.035 497.918L155.842 500.65C152.841 501.454 149.794 499.814 149.037 496.988L134.27 441.876C133.512 439.05 135.331 436.106 138.332 435.302Z" fill="#003346"/>
</g>
</g>
<path d="M136.119 434.357L146.312 431.626L163.822 496.973L153.629 499.704C150.628 500.508 147.582 498.87 146.824 496.043L132.057 440.93C131.3 438.104 133.119 435.161 136.119 434.357Z" fill="#06C987"/>
<path d="M136.119 434.357L146.312 431.626L163.822 496.973L153.629 499.704C150.628 500.508 147.582 498.87 146.824 496.043L132.057 440.93C131.3 438.104 133.119 435.161 136.119 434.357Z" stroke="#1A2E35" stroke-width="0.995318" stroke-miterlimit="10" stroke-linecap="round" stroke-linejoin="round"/>
<g opacity="0.199997">
<g opacity="0.199997">
<path opacity="0.199997" d="M336.818 382.345L326.625 385.076L334.159 413.195C334.956 412.284 336.037 411.579 337.32 411.235C340.599 410.357 343.929 412.149 344.756 415.238C345.584 418.326 343.596 421.543 340.317 422.421C339.034 422.765 337.746 422.696 336.6 422.304L344.135 450.424L354.327 447.693C357.329 446.888 359.147 443.945 358.39 441.119L343.623 386.007C342.865 383.181 339.819 381.541 336.818 382.345Z" fill="#003346"/>
</g>
</g>
<path d="M334.632 381.166L324.439 383.897L331.974 412.016C332.769 411.104 333.851 410.4 335.134 410.057C338.413 409.178 341.743 410.97 342.571 414.059C343.399 417.147 341.411 420.364 338.132 421.243C336.849 421.586 335.559 421.517 334.415 421.126L341.949 449.244L352.142 446.513C355.143 445.709 356.962 442.766 356.204 439.939L341.437 384.827C340.68 382.001 337.633 380.362 334.632 381.166Z" fill="#06C987"/>
<path d="M334.632 381.166L324.439 383.897L331.974 412.016C332.769 411.104 333.851 410.4 335.134 410.057C338.413 409.178 341.743 410.97 342.571 414.059C343.399 417.147 341.411 420.364 338.132 421.243C336.849 421.586 335.559 421.517 334.415 421.126L341.949 449.244L352.142 446.513C355.143 445.709 356.962 442.766 356.204 439.939L341.437 384.827C340.68 382.001 337.633 380.362 334.632 381.166Z" stroke="#1A2E35" stroke-width="0.995318" stroke-miterlimit="10" stroke-linecap="round" stroke-linejoin="round"/>
<g opacity="0.199997">
<g opacity="0.199997">
<path opacity="0.199997" d="M324.051 456.39L188.026 492.837C185.026 493.641 181.98 492.001 181.222 489.175L166.455 434.063C165.698 431.237 167.516 428.294 170.517 427.49L306.541 391.042C309.542 390.238 312.589 391.878 313.346 394.704L328.113 449.816C328.87 452.642 327.051 455.586 324.051 456.39Z" fill="#003346"/>
</g>
</g>
<path d="M319.971 455.134L183.947 491.581C180.947 492.385 177.9 490.747 177.142 487.919L162.375 432.807C161.618 429.981 163.437 427.038 166.438 426.234L302.461 389.786C305.462 388.982 308.509 390.622 309.266 393.448L324.033 448.56C324.791 451.387 322.971 454.33 319.971 455.134Z" fill="#1A2E35"/>
<path d="M319.971 455.134L183.947 491.581C180.947 492.385 177.9 490.747 177.142 487.919L162.375 432.807C161.618 429.981 163.437 427.038 166.438 426.234L302.461 389.786C305.462 388.982 308.509 390.622 309.266 393.448L324.033 448.56C324.791 451.387 322.971 454.33 319.971 455.134Z" stroke="#1A2E35" stroke-width="0.995318" stroke-miterlimit="10" stroke-linecap="round" stroke-linejoin="round"/>
<path d="M317.885 454.123L185.248 489.663C182.246 490.467 179.2 488.828 178.443 486.001L164.46 433.815C163.703 430.989 165.521 428.046 168.522 427.242L301.16 391.702C304.161 390.897 307.207 392.537 307.965 395.363L321.948 447.55C322.705 450.376 320.887 453.319 317.885 454.123Z" fill="#06C987"/>
<path d="M317.885 454.123L185.248 489.663C182.246 490.467 179.2 488.828 178.443 486.001L164.46 433.815C163.703 430.989 165.521 428.046 168.522 427.242L301.16 391.702C304.161 390.897 307.207 392.537 307.965 395.363L321.948 447.55C322.705 450.376 320.887 453.319 317.885 454.123Z" stroke="#1A2E35" stroke-width="0.995318" stroke-miterlimit="10" stroke-linecap="round" stroke-linejoin="round"/>
<path d="M287.657 460.32L189.75 486.554C186.517 487.42 183.233 485.654 182.417 482.608L169.755 435.355C168.939 432.309 170.9 429.137 174.133 428.271L272.04 402.037L287.657 460.32Z" fill="#B6B6B6"/>
<path d="M287.657 460.32L189.75 486.554C186.517 487.42 183.233 485.654 182.417 482.608L169.755 435.355C168.939 432.309 170.9 429.137 174.133 428.271L272.04 402.037L287.657 460.32Z" stroke="#1A2E35" stroke-width="0.995318" stroke-miterlimit="10" stroke-linecap="round" stroke-linejoin="round"/>
<path d="M311.568 422.048C311.002 419.934 308.724 418.708 306.479 419.31C304.237 419.911 302.877 422.111 303.443 424.225C304.009 426.339 306.288 427.565 308.53 426.964C310.775 426.363 312.135 424.162 311.568 422.048Z" fill="#1A2E35"/>
<path d="M311.568 422.048C311.002 419.934 308.724 418.708 306.479 419.31C304.237 419.911 302.877 422.111 303.443 424.225C304.009 426.339 306.288 427.565 308.53 426.964C310.775 426.363 312.135 424.162 311.568 422.048Z" stroke="#1A2E35" stroke-width="0.995318" stroke-miterlimit="10" stroke-linecap="round" stroke-linejoin="round"/>
<path d="M293.594 458.729L290.781 459.482L287.784 448.297L290.597 447.544L293.594 458.729Z" stroke="#1A2E35" stroke-width="0.995318" stroke-miterlimit="10" stroke-linecap="round" stroke-linejoin="round"/>
<path d="M289.019 441.657L286.207 442.41L283.21 431.225L286.022 430.471L289.019 441.657Z" stroke="#1A2E35" stroke-width="0.995318" stroke-miterlimit="10" stroke-linecap="round" stroke-linejoin="round"/>
<path d="M188.372 377.528C188.597 378.368 188.055 379.248 187.161 379.487L180.135 381.37L176.061 366.163L183.087 364.281C183.98 364.041 184.889 364.53 185.115 365.371L188.372 377.528ZM155.304 371.725L174.08 366.694L178.154 381.9L159.378 386.931L155.304 371.725ZM182.587 362.414L154.804 369.859L154.423 368.437C154.216 367.663 153.382 367.216 152.562 367.435C151.742 367.655 151.244 368.46 151.451 369.233L157.445 391.604C157.652 392.377 158.486 392.826 159.306 392.606C160.127 392.386 160.624 391.581 160.417 390.808L159.878 388.797L187.661 381.353C189.646 380.821 190.855 378.867 190.354 376.998L187.096 364.84C186.595 362.97 184.572 361.883 182.587 362.414Z" fill="#1A2E35"/>
<path d="M157.999 336.245L146.378 339.359L152.609 362.613L172.924 357.17L168.704 341.422L157.999 336.245Z" fill="#06C987"/>
<path d="M157.999 336.245L146.378 339.359L152.609 362.613L172.924 357.17L168.704 341.422L157.999 336.245Z" stroke="#1A2E35" stroke-width="0.995318" stroke-miterlimit="10" stroke-linecap="round" stroke-linejoin="round"/>
<path d="M164.668 355.748L157.31 357.72C155.935 358.088 154.539 357.337 154.192 356.041L151.964 347.727C151.617 346.432 152.45 345.084 153.825 344.715L161.184 342.743C162.559 342.375 163.955 343.126 164.302 344.421L166.53 352.735C166.878 354.031 166.043 355.38 164.668 355.748Z" fill="#F0FFF9"/>
<path d="M164.668 355.748L157.31 357.72C155.935 358.088 154.539 357.337 154.192 356.041L151.964 347.727C151.617 346.432 152.45 345.084 153.825 344.715L161.184 342.743C162.559 342.375 163.955 343.126 164.302 344.421L166.53 352.735C166.878 354.031 166.043 355.38 164.668 355.748Z" stroke="#1A2E35" stroke-width="0.995318" stroke-miterlimit="10" stroke-linecap="round" stroke-linejoin="round"/>
<path d="M157.442 343.994L160.867 356.777" stroke="#1A2E35" stroke-width="0.995318" stroke-miterlimit="10" stroke-linecap="round" stroke-linejoin="round"/>
<path d="M153.141 352.123L165.356 348.85" stroke="#1A2E35" stroke-width="0.995318" stroke-miterlimit="10" stroke-linecap="round" stroke-linejoin="round"/>
<path d="M157.753 357.488L156.976 354.59C156.545 352.982 157.58 351.307 159.288 350.849L159.397 350.82C161.105 350.362 162.838 351.296 163.269 352.904L164.074 355.908" stroke="#1A2E35" stroke-width="0.995318" stroke-miterlimit="10" stroke-linecap="round" stroke-linejoin="round"/>
<path d="M160.767 343.57L161.543 346.468C161.974 348.078 160.94 349.753 159.232 350.211L159.123 350.24C157.415 350.698 155.682 349.764 155.25 348.155L154.446 345.151" stroke="#1A2E35" stroke-width="0.995318" stroke-miterlimit="10" stroke-linecap="round" stroke-linejoin="round"/>
<g opacity="0.199997">
<g opacity="0.199997">
<path opacity="0.199997" d="M348.492 269.376C348.423 269.118 348.145 268.969 347.872 269.042L328.23 274.305C327.956 274.379 327.791 274.647 327.86 274.904L331.526 288.586C331.56 288.713 331.646 288.813 331.755 288.875L348.501 335.002C348.509 335.022 348.517 335.042 348.527 335.06L361.609 383.883C361.648 384.028 361.756 384.134 361.89 384.188L368.904 399.422C369.003 399.637 369.255 399.748 369.497 399.683L370.232 399.486L380.459 435.004C380.641 435.64 381.342 436.009 382.019 435.828C382.697 435.646 383.12 434.977 382.961 434.334L374.057 398.461L374.822 398.256C375.066 398.19 375.228 397.969 375.206 397.733L373.663 381.034C373.752 380.919 373.793 380.774 373.754 380.629L360.673 331.807C360.672 331.786 360.67 331.764 360.666 331.743L352.103 283.42C352.168 283.313 352.192 283.184 352.158 283.058L348.492 269.376Z" fill="#003346"/>
</g>
</g>
<path d="M379.377 436.032C378.963 436.142 378.544 435.922 378.432 435.535L367.14 396.31L370.112 395.513L379.945 435.13C380.042 435.52 379.789 435.921 379.377 436.032Z" fill="#F0FFF9"/>
<path d="M379.377 436.032C378.963 436.142 378.544 435.922 378.432 435.535L367.14 396.31L370.112 395.513L379.945 435.13C380.042 435.52 379.789 435.921 379.377 436.032Z" stroke="#1A2E35" stroke-width="0.995318" stroke-miterlimit="10"/>
<path d="M349.035 283.934L329.63 289.134L346.464 335.505L346.476 335.502L359.584 384.422L370.739 381.433L357.63 332.513L357.642 332.51L349.035 283.934Z" fill="#1A2E35"/>
<path d="M349.035 283.934L329.63 289.134L346.464 335.505L346.476 335.502L359.584 384.422L370.739 381.433L357.63 332.513L357.642 332.51L349.035 283.934Z" stroke="#1A2E35" stroke-width="0.995318" stroke-miterlimit="10" stroke-linecap="round" stroke-linejoin="round"/>
<path d="M349.143 283.862L329.502 289.125L325.836 275.443L345.477 270.18L349.143 283.862Z" fill="#06C987" stroke="#1A2E35" stroke-width="0.995318" stroke-miterlimit="10" stroke-linecap="round" stroke-linejoin="round"/>
<path d="M372.178 398.46L366.853 399.886L359.748 384.455L370.616 381.543L372.178 398.46Z" fill="#06C987"/>
<path d="M372.178 398.46L366.853 399.886L359.748 384.455L370.616 381.543L372.178 398.46Z" stroke="#1A2E35" stroke-width="0.995318" stroke-miterlimit="10" stroke-linecap="round" stroke-linejoin="round"/>
<g opacity="0.199997">
<g opacity="0.199997">
<path opacity="0.199997" d="M102.658 475.256C102.727 475.377 102.79 475.48 102.845 475.563C102.821 475.595 102.795 475.628 102.767 475.665C102.725 475.647 102.686 475.631 102.649 475.615C102.655 475.516 102.658 475.396 102.658 475.256ZM88.2529 354.367C88.2167 354.252 88.1347 354.156 88.0255 354.097C87.5119 353.82 87.1522 353.988 86.9825 354.111C85.7067 355.048 87.0718 360.701 91.0025 375.426C93.3751 384.317 96.0647 394.394 97.0938 401.219C99.4153 416.615 100.72 440.196 100.13 456.069C99.9582 460.68 100.131 464.28 100.464 467.068C99.358 464.487 97.7075 461.283 95.2536 457.376C86.8055 443.924 76.1451 422.85 70.4574 408.356C67.9364 401.931 65.227 391.859 62.8365 382.974C58.8781 368.256 57.2336 362.677 55.6603 362.504C55.4536 362.481 55.0574 362.517 54.7498 363.013C54.6846 363.119 54.6616 363.243 54.6879 363.361C54.7939 363.843 65.325 411.812 74.3331 430.706C78.3501 439.132 82.5875 447.575 86.6847 455.742C91.8291 465.993 96.2709 474.847 98.9781 481.087C102.82 489.94 105.921 501.615 107.077 506.223C107.225 506.815 107.61 507.307 108.16 507.608C108.713 507.911 109.364 507.985 109.992 507.816L112.586 507.121C113.214 506.953 113.741 506.564 114.068 506.025C114.394 505.489 114.482 504.87 114.314 504.284C113.011 499.716 109.86 488.055 108.76 478.466C107.984 471.709 107.404 461.82 106.733 450.37C106.199 441.249 105.646 431.818 104.912 422.512C103.267 401.646 88.4025 354.838 88.2529 354.367Z" fill="#003346"/>
</g>
</g>
<path d="M85.6676 355.345C81.9456 353.342 93.1122 386.101 95.5037 401.96C97.8951 417.82 99.1271 441.24 98.5443 456.896C97.9614 472.553 101.378 476.387 101.378 476.387C101.378 476.387 101.143 476.678 100.834 477.096C100.357 476.889 100.008 476.754 100.008 476.754C100.008 476.754 101.049 471.725 92.7163 458.458C84.3834 445.19 73.7402 424.292 67.8815 409.361C62.0229 394.431 55.3142 360.478 53.0922 364.073C53.0922 364.073 63.6135 412.255 72.7035 431.32C81.7935 450.384 92.4968 470.517 97.3555 481.715C101.236 490.657 104.373 502.511 105.479 506.923C105.72 507.887 106.752 508.448 107.772 508.175L110.364 507.48C111.384 507.207 111.999 506.205 111.725 505.249C110.477 500.876 107.267 489.041 106.155 479.357C104.764 467.23 103.967 444.443 102.307 423.388C100.647 402.332 85.6676 355.345 85.6676 355.345Z" fill="#1A2E35"/>
<path d="M85.6676 355.345C81.9456 353.342 93.1122 386.101 95.5037 401.96C97.8951 417.82 99.1271 441.24 98.5443 456.896C97.9615 472.553 101.378 476.387 101.378 476.387C101.378 476.387 101.143 476.678 100.834 477.096C100.357 476.889 100.008 476.754 100.008 476.754C100.008 476.754 101.049 471.725 92.7163 458.458C84.3834 445.19 73.7402 424.292 67.8815 409.361C62.0229 394.431 55.3142 360.478 53.0922 364.073C53.0922 364.073 63.6135 412.255 72.7035 431.32C81.7935 450.384 92.4968 470.517 97.3555 481.715C101.236 490.657 104.373 502.511 105.479 506.923C105.72 507.887 106.752 508.448 107.772 508.175L110.364 507.48C111.384 507.207 111.999 506.205 111.725 505.249C110.477 500.876 107.267 489.041 106.155 479.357C104.764 467.23 103.967 444.443 102.307 423.388C100.647 402.332 85.6676 355.345 85.6676 355.345Z" stroke="#1A2E35" stroke-width="0.995318" stroke-miterlimit="10" stroke-linecap="round" stroke-linejoin="round"/>
<g opacity="0.199997">
<g opacity="0.199997">
<path opacity="0.199997" d="M307.533 187.933C308.107 162.691 311.143 139.789 311.965 133.573L271.104 142.935C271.104 142.935 267.025 174.738 264.466 183.942C261.908 193.147 256.601 197.092 250.435 201.584C244.27 206.075 227.968 222.747 227.277 227.666C226.583 232.583 227.945 246.416 227.254 251.333C226.561 256.252 223.441 259.611 218.21 262.59C217.185 263.174 216.141 263.739 215.138 264.287C215.114 264.301 215.091 264.313 215.068 264.326C214.731 264.511 214.401 264.693 214.076 264.873C213.898 264.973 213.721 265.071 213.547 265.17C213.432 265.235 213.322 265.298 213.211 265.362C213.049 265.454 212.89 265.546 212.734 265.638C212.625 265.702 212.517 265.766 212.411 265.829C212.25 265.925 212.094 266.022 211.939 266.118C211.85 266.174 211.758 266.229 211.671 266.285C211.44 266.431 211.218 266.576 211.007 266.72C210.966 266.749 210.93 266.777 210.89 266.806C210.721 266.924 210.557 267.042 210.403 267.159C210.335 267.212 210.273 267.262 210.209 267.313C210.089 267.41 209.974 267.505 209.866 267.6C209.805 267.654 209.745 267.708 209.687 267.762C209.584 267.859 209.489 267.956 209.398 268.054C209.355 268.1 209.307 268.148 209.267 268.195C209.147 268.336 209.037 268.476 208.949 268.617C208.94 268.63 208.936 268.644 208.927 268.659C208.851 268.785 208.79 268.912 208.743 269.037C208.727 269.083 208.717 269.128 208.704 269.174C208.678 269.27 208.659 269.365 208.651 269.46C208.647 269.51 208.646 269.559 208.647 269.609C208.648 269.705 208.664 269.8 208.688 269.897C208.698 269.94 208.704 269.985 208.72 270.028C208.767 270.166 208.831 270.304 208.925 270.441C210.573 272.839 220.109 272.177 228.857 268.571C237.605 264.965 240.412 261.689 242.279 257.403C244.146 253.117 246.782 244.207 248.422 242.822L250.059 241.436C250.059 241.436 258.187 273.016 259.837 276.675C261.487 280.335 261.599 294.502 258.981 312.24C257.958 319.176 258.538 324.81 259.782 329.193C259.789 329.219 259.797 329.242 259.803 329.267C260.188 330.611 260.634 331.834 261.116 332.941C261.12 332.951 261.124 332.959 261.128 332.969C261.615 334.079 262.135 335.073 262.666 335.949C262.669 335.954 262.673 335.958 262.675 335.962C262.845 336.243 263.015 336.511 263.187 336.768C263.197 336.782 263.208 336.799 263.217 336.814C263.569 337.337 263.918 337.81 264.259 338.233L264.287 338.266C264.44 338.452 264.589 338.629 264.738 338.796C264.768 338.83 264.797 338.862 264.827 338.895C264.965 339.049 265.1 339.194 265.234 339.329C265.254 339.348 265.274 339.371 265.294 339.39C265.447 339.544 265.595 339.686 265.74 339.816C265.754 339.83 265.769 339.841 265.785 339.856C265.907 339.963 266.025 340.063 266.138 340.154C266.176 340.186 266.214 340.214 266.251 340.244C266.344 340.315 266.432 340.381 266.52 340.44C266.554 340.464 266.588 340.49 266.623 340.512C266.736 340.586 266.845 340.655 266.945 340.709C269.686 342.183 274.061 341.011 274.762 339.877C275.462 338.742 271.682 327.135 271.507 318.98C271.332 310.823 276.829 287.581 278.849 282.624C280.87 277.665 282.651 270.562 282.651 270.562C282.651 270.562 284.481 283.639 282.331 300.62C280.183 317.601 276.301 329.368 276.233 334.118C276.166 338.869 281.565 340.262 284.062 338.331C286.559 336.4 289.342 323.034 290.426 318.327C291.509 313.62 295.078 301.937 295.078 301.937C295.078 301.937 300.628 301.397 303.195 295.976C303.507 295.318 303.833 294.58 304.164 293.795C305.497 293.623 307.336 293.115 309.44 291.778C313.734 289.051 312.238 284.719 312.93 279.801C313.209 277.817 313.974 275.812 314.783 274.118C316.07 272.545 317.122 270.956 317.285 269.801C317.626 267.377 314.733 250.835 312.873 238.122C310.189 226.995 307.038 209.636 307.533 187.933Z" fill="#003346"/>
</g>
</g>
<path d="M311.333 267.395C311.333 267.395 307.671 272.478 306.977 277.396C306.285 282.314 307.781 286.645 303.487 289.373C299.194 292.101 295.987 291.383 295.987 291.383C295.987 291.383 297.37 281.548 298.77 278.018C300.168 274.488 311.333 267.395 311.333 267.395Z" fill="#06C987"/>
<g opacity="0.5">
<g opacity="0.5">
<path opacity="0.5" d="M311.335 267.397C311.335 267.397 307.673 272.48 306.979 277.398C306.287 282.316 307.783 286.647 303.489 289.375C299.196 292.103 295.989 291.385 295.989 291.385C295.989 291.385 297.372 281.55 298.772 278.02C300.17 274.49 311.335 267.397 311.335 267.397Z" fill="#F0FFF9"/>
</g>
</g>
<path d="M311.331 267.395C311.331 267.395 307.669 272.478 306.975 277.396C306.283 282.314 307.779 286.645 303.485 289.373C299.192 292.101 295.985 291.383 295.985 291.383C295.985 291.383 297.368 281.548 298.768 278.018C300.167 274.488 311.331 267.395 311.331 267.395Z" stroke="#1A2E35" stroke-width="0.995318" stroke-miterlimit="10" stroke-linecap="round" stroke-linejoin="round"/>
<path d="M265.15 140.531C265.15 140.531 261.071 172.334 258.512 181.538C255.954 190.742 250.647 194.687 244.481 199.18C238.316 203.671 222.014 220.343 221.322 225.26C220.629 230.179 221.991 244.011 221.3 248.929C220.607 253.846 217.487 257.206 212.256 260.185C207.025 263.165 201.323 265.639 202.971 268.037C204.619 270.434 214.155 269.772 222.904 266.166C231.651 262.56 234.458 259.284 236.325 254.999C238.191 250.713 240.828 241.803 242.468 240.418L244.105 239.032C244.105 239.032 252.233 270.612 253.883 274.271C255.534 277.93 255.645 292.098 253.027 309.835C250.411 327.572 258.252 336.83 260.991 338.305C263.732 339.779 268.107 338.606 268.808 337.471C269.508 336.338 265.729 324.73 265.553 316.575C265.377 308.419 270.875 285.177 272.895 280.219C274.916 275.261 276.698 268.158 276.698 268.158C276.698 268.158 278.527 281.234 276.377 298.216C274.229 315.197 270.347 326.964 270.279 331.714C270.212 336.465 275.611 337.857 278.108 335.926C280.605 333.995 283.389 320.629 284.472 315.923C285.556 311.215 289.124 299.532 289.124 299.532C289.124 299.532 294.674 298.992 297.242 293.571C299.809 288.151 303.303 277.435 303.303 277.435C303.303 277.435 310.87 270.675 311.331 267.396C311.793 264.118 306.329 234.978 305.524 224.468C304.716 213.957 304.273 191.046 304.797 181.756C305.323 172.466 315.944 130.075 315.944 130.075" fill="#F0FFF9"/>
<path d="M236.325 254.998C238.191 250.712 240.828 241.802 242.468 240.417L244.105 239.031C244.105 239.031 237.17 231.801 234.213 239.259C231.258 246.719 227.153 257.819 221.376 260.033C217.375 261.567 213.291 261.525 209.184 261.882C205.073 264.131 201.647 266.109 202.971 268.036C204.619 270.434 214.156 269.771 222.903 266.165C231.652 262.56 234.458 259.284 236.325 254.998Z" fill="#06C987"/>
<path d="M253.473 325.427C255.298 333.116 259.214 337.348 260.991 338.305C263.732 339.778 268.107 338.606 268.808 337.471C269.509 336.337 265.729 324.73 265.553 316.575C265.377 308.419 270.875 285.177 272.895 280.219C274.916 275.26 276.697 268.157 276.697 268.157C276.697 268.157 272.811 282.919 266.885 292.507C261.637 301 253.415 310.819 253.473 325.427Z" fill="#06C987"/>
<path d="M309.362 157.79C309.362 157.79 305.43 172.177 296.228 193.31C287.025 214.443 292.199 236.39 292.718 246.251C293.236 256.112 296.89 264.466 292.293 276.365C287.694 288.265 285.238 297.589 285.238 297.589L276.7 268.157C276.7 268.157 278.529 281.233 276.38 298.214C274.23 315.196 270.348 326.963 270.282 331.714C270.215 336.464 275.612 337.857 278.109 335.925C280.607 333.995 283.39 320.628 284.473 315.922C285.557 311.214 289.127 299.532 289.127 299.532C289.127 299.532 294.676 298.991 297.244 293.571C299.81 288.15 303.305 277.434 303.305 277.434C303.305 277.434 310.872 270.674 311.333 267.395C311.795 264.116 306.332 234.978 305.525 224.467C304.719 213.957 304.274 191.045 304.799 181.755C305.043 177.457 307.196 167.449 309.442 157.933L309.362 157.79Z" fill="#06C987"/>
<g opacity="0.5">
<g opacity="0.5">
<path opacity="0.5" d="M236.325 255C238.191 250.714 240.828 241.804 242.468 240.419L244.105 239.033C244.105 239.033 237.17 231.803 234.213 239.261C231.258 246.72 227.153 257.82 221.376 260.035C217.375 261.568 213.291 261.527 209.184 261.884C205.073 264.133 201.647 266.111 202.971 268.038C204.619 270.436 214.156 269.773 222.903 266.167C231.652 262.562 234.458 259.286 236.325 255Z" fill="#F0FFF9"/>
</g>
<g opacity="0.5">
<path opacity="0.5" d="M253.473 325.429C255.298 333.118 259.214 337.35 260.991 338.307C263.732 339.78 268.107 338.608 268.808 337.473C269.509 336.339 265.729 324.732 265.553 316.577C265.377 308.421 270.875 285.178 272.895 280.221C274.916 275.262 276.697 268.159 276.697 268.159C276.697 268.159 272.811 282.921 266.885 292.509C261.637 301.002 253.415 310.821 253.473 325.429Z" fill="#F0FFF9"/>
</g>
<g opacity="0.5">
<path opacity="0.5" d="M309.362 157.79C309.362 157.79 305.43 172.177 296.228 193.31C287.025 214.443 292.199 236.39 292.718 246.251C293.236 256.112 296.89 264.466 292.293 276.365C287.694 288.265 285.238 297.589 285.238 297.589L276.7 268.157C276.7 268.157 278.529 281.233 276.38 298.214C274.23 315.196 270.348 326.963 270.282 331.714C270.215 336.464 275.612 337.857 278.109 335.925C280.607 333.995 283.39 320.628 284.473 315.922C285.557 311.214 289.127 299.532 289.127 299.532C289.127 299.532 294.676 298.991 297.244 293.571C299.81 288.15 303.305 277.434 303.305 277.434C303.305 277.434 310.872 270.674 311.333 267.395C311.795 264.116 306.332 234.978 305.525 224.467C304.719 213.957 304.274 191.045 304.799 181.755C305.043 177.457 307.196 167.449 309.442 157.933L309.362 157.79Z" fill="#F0FFF9"/>
</g>
</g>
<path d="M265.15 140.531C265.15 140.531 261.071 172.334 258.512 181.538C255.954 190.742 250.647 194.687 244.481 199.18C238.316 203.671 222.014 220.343 221.322 225.26C220.629 230.179 221.991 244.011 221.3 248.929C220.607 253.846 217.487 257.206 212.256 260.185C207.025 263.165 201.323 265.639 202.971 268.037C204.619 270.434 214.155 269.772 222.904 266.166C231.651 262.56 234.458 259.284 236.325 254.999C238.191 250.713 240.828 241.803 242.468 240.418L244.105 239.032C244.105 239.032 252.233 270.612 253.883 274.271C255.534 277.93 255.645 292.098 253.027 309.835C250.411 327.572 258.252 336.83 260.991 338.305C263.732 339.779 268.107 338.606 268.808 337.471C269.508 336.338 265.729 324.73 265.553 316.575C265.377 308.419 270.875 285.177 272.895 280.219C274.916 275.261 276.698 268.158 276.698 268.158C276.698 268.158 278.527 281.234 276.377 298.216C274.229 315.197 270.347 326.964 270.279 331.714C270.212 336.465 275.611 337.857 278.108 335.926C280.605 333.995 283.389 320.629 284.472 315.923C285.556 311.215 289.124 299.532 289.124 299.532C289.124 299.532 294.674 298.992 297.242 293.571C299.809 288.151 303.303 277.435 303.303 277.435C303.303 277.435 310.87 270.675 311.331 267.396C311.793 264.118 306.329 234.978 305.524 224.468C304.716 213.957 304.273 191.046 304.797 181.756C305.323 172.466 315.944 130.075 315.944 130.075" stroke="#1A2E35" stroke-width="0.995318" stroke-miterlimit="10" stroke-linecap="round" stroke-linejoin="round"/>
<path d="M277.391 263.025C277.391 263.025 279.699 261.074 279.192 256.543C278.686 252.011 277.686 248.279 277.686 248.279" stroke="#1A2E35" stroke-width="0.995318" stroke-miterlimit="10" stroke-linecap="round" stroke-linejoin="round"/>
<path d="M289.125 299.531C289.125 299.531 294.397 280.451 295.722 279.15C297.049 277.848 301.339 273.859 300.548 269.654C299.756 265.449 298.729 260.361 298.729 260.361" stroke="#1A2E35" stroke-width="0.995318" stroke-miterlimit="10" stroke-linecap="round" stroke-linejoin="round"/>
<path d="M80.5048 192.417C80.5048 192.417 100.766 225.381 104.137 229.21C107.507 233.039 121.276 236.922 126.067 246.049C130.857 255.177 134.775 258.544 139.247 265.233C143.719 271.922 145.907 271.336 143.812 278.522C141.718 285.709 142.119 289.703 145.644 292.86C149.17 296.017 163.325 297.587 162.55 300.949C161.777 304.312 160.451 305.613 159.201 305.948L157.951 306.283C157.951 306.283 163.366 315.243 162.75 319.194C162.134 323.145 159.015 326.505 157.29 325.074C155.568 323.643 152.67 321.58 152.67 321.58C152.67 321.58 156.432 325.619 153.464 327.045C150.497 328.472 149.635 327.756 144.395 326.951C139.155 326.147 127.977 326.935 127.977 326.935C127.977 326.935 116.738 334.993 112.989 337.26C109.242 339.526 103.847 339.394 103.847 339.394C103.847 339.394 91.7489 347.999 88.4573 344.464C85.165 340.93 79.0279 324.275 77.2233 321.289C75.4176 318.303 71.5821 316.49 70.8664 311.319C70.1508 306.148 70.9252 302.785 70.685 300.64C70.4451 298.497 68.5544 258.936 66.3459 250.693C64.1376 242.452 37.7818 205.344 37.7818 205.344" fill="#F0FFF9"/>
<path d="M80.5048 192.417C80.5048 192.417 100.766 225.381 104.137 229.21C107.507 233.039 121.276 236.922 126.067 246.049C130.857 255.177 134.775 258.544 139.247 265.233C143.719 271.922 145.907 271.336 143.812 278.522C141.718 285.709 142.119 289.703 145.644 292.86C149.17 296.017 163.325 297.587 162.55 300.949C161.777 304.312 160.451 305.613 159.201 305.948L157.951 306.283C157.951 306.283 163.366 315.243 162.75 319.194C162.134 323.145 159.015 326.505 157.29 325.074C155.568 323.643 152.67 321.58 152.67 321.58C152.67 321.58 156.432 325.619 153.464 327.045C150.497 328.472 149.635 327.756 144.395 326.951C139.155 326.147 127.977 326.935 127.977 326.935C127.977 326.935 116.738 334.993 112.989 337.26C109.242 339.526 103.847 339.394 103.847 339.394C103.847 339.394 91.7489 347.999 88.4573 344.464C85.165 340.93 79.0279 324.275 77.2233 321.289C75.4176 318.303 71.5821 316.49 70.8664 311.319C70.1508 306.148 70.9252 302.785 70.685 300.64C70.4451 298.497 68.5544 258.936 66.3459 250.693C64.1376 242.452 37.7818 205.344 37.7818 205.344" stroke="#1A2E35" stroke-width="0.995318" stroke-miterlimit="10" stroke-linecap="round" stroke-linejoin="round"/>
<path d="M113.751 262.601C113.751 262.601 124.036 280.983 128.663 287C133.29 293.016 137.996 299.327 141.831 301.139C145.665 302.95 156.304 305.148 157.948 306.285" stroke="#1A2E35" stroke-width="0.995318" stroke-miterlimit="10" stroke-linecap="round" stroke-linejoin="round"/>
<path d="M98.1043 290.458C98.1043 290.458 125.363 312.18 129.279 315.547C133.197 318.914 141.635 316.653 144.296 317.833C146.958 319.014 152.671 321.584 152.671 321.584" stroke="#1A2E35" stroke-width="0.995318" stroke-miterlimit="10" stroke-linecap="round" stroke-linejoin="round"/>
<path d="M81.0898 303.217C81.0898 303.217 92.1309 310.67 101.609 318.541C111.088 326.413 112.344 328.6 116.018 328.563C119.693 328.524 127.977 326.935 127.977 326.935" stroke="#1A2E35" stroke-width="0.995318" stroke-miterlimit="10" stroke-linecap="round" stroke-linejoin="round"/>
<path d="M78.5472 319.99C78.5472 319.99 97.8144 334.387 99.7734 336.701C101.734 339.016 103.846 339.397 103.846 339.397" stroke="#1A2E35" stroke-width="0.995318" stroke-miterlimit="10" stroke-linecap="round" stroke-linejoin="round"/>
<path d="M92.7416 271.7C92.7416 271.7 87.0464 276.697 88.6933 279.095C90.3412 281.492 92.6135 283.723 92.6135 283.723" stroke="#1A2E35" stroke-width="0.995318" stroke-miterlimit="10" stroke-linecap="round" stroke-linejoin="round"/>
<path d="M77.9227 286.399C77.9227 286.399 72.4581 289.757 73.0125 293.078C73.5682 296.4 75.8402 298.631 75.8402 298.631" stroke="#1A2E35" stroke-width="0.995318" stroke-miterlimit="10" stroke-linecap="round" stroke-linejoin="round"/>
<path d="M202.056 299.105L155.883 311.477L154.55 306.501L200.722 294.129L202.056 299.105Z" fill="#F0FFF9" stroke="#1A2E35" stroke-width="0.995318" stroke-miterlimit="10" stroke-linecap="round" stroke-linejoin="round"/>
<g opacity="0.199997">
<g opacity="0.199997">
<path opacity="0.199997" d="M86.0151 200.866C86.0151 200.866 110.362 229.482 113.733 233.312C117.103 237.141 130.873 241.023 135.664 250.15C140.454 259.278 144.372 262.645 148.844 269.334C153.315 276.023 155.502 275.437 153.409 282.623C151.315 289.809 151.715 293.804 155.241 296.961C158.767 300.117 172.921 301.687 172.147 305.051C171.374 308.413 170.047 309.715 168.798 310.049L167.546 310.385C167.546 310.385 172.963 319.344 172.347 323.295C171.73 327.247 168.611 330.607 166.887 329.175C165.163 327.743 162.266 325.681 162.266 325.681C162.266 325.681 166.029 329.72 163.061 331.147C160.093 332.573 159.231 331.857 153.992 331.053C148.752 330.249 137.573 331.035 137.573 331.035C137.573 331.035 126.333 339.095 122.586 341.361C118.839 343.627 113.444 343.496 113.444 343.496C113.444 343.496 101.346 352.1 98.053 348.566C94.7614 345.03 88.6246 328.377 86.82 325.39C85.0141 322.403 81.1788 320.591 80.4629 315.419C79.7472 310.248 80.5207 306.886 80.2817 304.742C80.0418 302.598 78.1511 263.037 75.9426 254.795C73.7343 246.553 47.3775 209.446 47.3775 209.446" fill="#003346"/>
</g>
</g>
<path d="M80.5048 192.417C80.5048 192.417 100.766 225.381 104.137 229.21C107.507 233.039 121.276 236.922 126.067 246.049C130.857 255.177 134.775 258.544 139.247 265.233C143.719 271.922 145.907 271.336 143.812 278.522C141.718 285.709 142.119 289.703 145.644 292.86C149.17 296.017 163.325 297.587 162.55 300.949C161.777 304.312 160.451 305.613 159.201 305.948L157.951 306.283C157.951 306.283 163.366 315.243 162.75 319.194C162.134 323.145 159.015 326.505 157.29 325.074C155.568 323.643 152.67 321.58 152.67 321.58C152.67 321.58 156.432 325.619 153.464 327.045C150.497 328.472 149.635 327.756 144.395 326.951C139.155 326.147 127.977 326.935 127.977 326.935C127.977 326.935 116.738 334.993 112.989 337.26C109.242 339.526 103.847 339.394 103.847 339.394C103.847 339.394 91.7489 347.999 88.4573 344.464C85.165 340.93 79.0279 324.275 77.2233 321.289C75.4176 318.303 71.5821 316.49 70.8664 311.319C70.1508 306.148 70.9252 302.785 70.685 300.64C70.4451 298.497 68.5544 258.936 66.3459 250.693C64.1376 242.452 37.7818 205.344 37.7818 205.344" fill="#F0FFF9"/>
<path d="M111.182 332.226C104.91 335.239 99.7714 336.701 99.7714 336.701C99.7714 336.701 101.875 343.687 88.4525 344.466C91.7451 348.001 103.843 339.396 103.843 339.396C103.843 339.396 109.238 339.527 112.986 337.262C116.733 334.996 127.973 326.936 127.973 326.936C127.973 326.936 139.15 326.149 144.391 326.953C149.631 327.758 150.493 328.473 153.461 327.047C156.429 325.622 152.666 321.582 152.666 321.582C152.666 321.582 155.563 323.645 157.287 325.076C159.01 326.507 162.13 323.147 162.746 319.196C163.362 315.245 157.946 306.285 157.946 306.285L159.197 305.95C160.446 305.615 161.773 304.313 162.547 300.951C163.321 297.589 149.166 296.018 145.641 292.862C142.115 289.705 141.715 285.711 143.809 278.524C145.902 271.338 143.715 271.925 139.242 265.235C134.771 258.546 130.854 255.178 126.063 246.051C121.726 237.788 110.031 233.823 105.353 230.306C109.043 235.135 113.699 240.497 118.907 244.821C131.653 255.406 135.647 267.669 134.839 275.219C134.03 282.77 132.888 289.076 132.888 289.076L118.476 272.27C118.476 272.27 124.796 290.577 128.605 294.223C132.414 297.869 135.068 302.492 140.691 304.985C146.313 307.479 154.085 310.063 148.802 311.478C143.517 312.894 129.275 315.544 129.275 315.544C129.275 315.544 131.97 319.988 124.705 321.935C117.44 323.882 109.015 324.139 109.015 324.139C109.015 324.139 117.453 329.212 111.182 332.226Z" fill="#06C987"/>
<g opacity="0.5">
<g opacity="0.5">
<path opacity="0.5" d="M111.18 332.227C104.908 335.241 99.7695 336.703 99.7695 336.703C99.7695 336.703 101.873 343.689 88.4505 344.468C91.7431 348.003 103.841 339.398 103.841 339.398C103.841 339.398 109.236 339.529 112.984 337.264C116.731 334.998 127.971 326.938 127.971 326.938C127.971 326.938 139.149 326.151 144.389 326.955C149.629 327.76 150.491 328.475 153.459 327.049C156.427 325.624 152.664 321.584 152.664 321.584C152.664 321.584 155.561 323.647 157.285 325.078C159.008 326.509 162.128 323.149 162.744 319.198C163.36 315.247 157.944 306.287 157.944 306.287L159.195 305.952C160.444 305.617 161.771 304.315 162.546 300.953C163.319 297.591 149.164 296.02 145.639 292.864C142.113 289.707 141.713 285.713 143.807 278.526C145.9 271.34 143.713 271.927 139.24 265.237C134.769 258.548 130.852 255.18 126.061 246.053C121.724 237.79 110.029 233.825 105.351 230.308C109.041 235.137 113.697 240.499 118.905 244.823C131.652 255.408 135.645 267.671 134.837 275.221C134.028 282.772 132.886 289.078 132.886 289.078L118.474 272.272C118.474 272.272 124.794 290.579 128.603 294.225C132.412 297.871 135.066 302.494 140.689 304.987C146.312 307.481 154.083 310.065 148.8 311.48C143.515 312.896 129.273 315.546 129.273 315.546C129.273 315.546 131.968 319.99 124.703 321.937C117.438 323.883 109.013 324.141 109.013 324.141C109.013 324.141 117.451 329.214 111.18 332.227Z" fill="#F0FFF9"/>
</g>
</g>
<path d="M80.5048 192.417C80.5048 192.417 100.766 225.381 104.137 229.21C107.507 233.039 121.276 236.922 126.067 246.049C130.857 255.177 134.775 258.544 139.247 265.233C143.719 271.922 145.907 271.336 143.812 278.522C141.718 285.709 142.119 289.703 145.644 292.86C149.17 296.017 163.325 297.587 162.55 300.949C161.777 304.312 160.451 305.613 159.201 305.948L157.951 306.283C157.951 306.283 163.366 315.243 162.75 319.194C162.134 323.145 159.015 326.505 157.29 325.074C155.568 323.643 152.67 321.58 152.67 321.58C152.67 321.58 156.432 325.619 153.464 327.045C150.497 328.472 149.635 327.756 144.395 326.951C139.155 326.147 127.977 326.935 127.977 326.935C127.977 326.935 116.738 334.993 112.989 337.26C109.242 339.526 103.847 339.394 103.847 339.394C103.847 339.394 91.7489 347.999 88.4573 344.464C85.165 340.93 79.0279 324.275 77.2233 321.289C75.4176 318.303 71.5821 316.49 70.8664 311.319C70.1508 306.148 70.9252 302.785 70.685 300.64C70.4451 298.497 68.5544 258.936 66.3459 250.693C64.1376 242.452 37.7818 205.344 37.7818 205.344" stroke="#1A2E35" stroke-width="0.995318" stroke-miterlimit="10" stroke-linecap="round" stroke-linejoin="round"/>
<path d="M113.753 262.601C113.753 262.601 124.038 280.983 128.665 287C133.292 293.016 137.998 299.327 141.833 301.139C145.667 302.95 156.306 305.148 157.95 306.285" stroke="#1A2E35" stroke-width="0.995318" stroke-miterlimit="10" stroke-linecap="round" stroke-linejoin="round"/>
<path d="M98.1024 290.456C98.1024 290.456 125.361 312.178 129.277 315.545C133.195 318.912 141.633 316.651 144.294 317.831C146.956 319.012 152.669 321.582 152.669 321.582" stroke="#1A2E35" stroke-width="0.995318" stroke-miterlimit="10" stroke-linecap="round" stroke-linejoin="round"/>
<path d="M81.0898 303.215C81.0898 303.215 92.1309 310.668 101.609 318.54C111.088 326.411 112.344 328.598 116.018 328.561C119.693 328.522 127.977 326.933 127.977 326.933" stroke="#1A2E35" stroke-width="0.995318" stroke-miterlimit="10" stroke-linecap="round" stroke-linejoin="round"/>
<path d="M78.5491 319.988C78.5491 319.988 97.8164 334.385 99.7754 336.699C101.736 339.014 103.848 339.395 103.848 339.395" stroke="#1A2E35" stroke-width="0.995318" stroke-miterlimit="10" stroke-linecap="round" stroke-linejoin="round"/>
<path d="M92.7436 271.702C92.7436 271.702 87.0484 276.699 88.6953 279.097C90.3432 281.494 92.6154 283.725 92.6154 283.725" stroke="#1A2E35" stroke-width="0.995318" stroke-miterlimit="10" stroke-linecap="round" stroke-linejoin="round"/>
<path d="M77.9227 286.397C77.9227 286.397 72.4581 289.755 73.0125 293.076C73.5682 296.398 75.8402 298.629 75.8402 298.629" stroke="#1A2E35" stroke-width="0.995318" stroke-miterlimit="10" stroke-linecap="round" stroke-linejoin="round"/>
</g>
</g>
<defs>
<filter id="filter0_dddddd_852_20754" x="-30.8293" y="129.578" width="479.752" height="494.06" filterUnits="userSpaceOnUse" color-interpolation-filters="sRGB">
<feFlood flood-opacity="0" result="BackgroundImageFix"/>
<feColorMatrix in="SourceAlpha" type="matrix" values="0 0 0 0 0 0 0 0 0 0 0 0 0 0 0 0 0 0 127 0" result="hardAlpha"/>
<feOffset dy="1.55384"/>
<feGaussianBlur stdDeviation="0.638566"/>
<feColorMatrix type="matrix" values="0 0 0 0 0 0 0 0 0 0 0 0 0 0 0 0 0 0 0.0281146 0"/>
<feBlend mode="normal" in2="BackgroundImageFix" result="effect1_dropShadow_852_20754"/>
<feColorMatrix in="SourceAlpha" type="matrix" values="0 0 0 0 0 0 0 0 0 0 0 0 0 0 0 0 0 0 127 0" result="hardAlpha"/>
<feOffset dy="3.7341"/>
<feGaussianBlur stdDeviation="1.53456"/>
<feColorMatrix type="matrix" values="0 0 0 0 0 0 0 0 0 0 0 0 0 0 0 0 0 0 0.0403893 0"/>
<feBlend mode="normal" in2="effect1_dropShadow_852_20754" result="effect2_dropShadow_852_20754"/>
<feColorMatrix in="SourceAlpha" type="matrix" values="0 0 0 0 0 0 0 0 0 0 0 0 0 0 0 0 0 0 127 0" result="hardAlpha"/>
<feOffset dy="7.03098"/>
<feGaussianBlur stdDeviation="2.88944"/>
<feColorMatrix type="matrix" values="0 0 0 0 0 0 0 0 0 0 0 0 0 0 0 0 0 0 0.05 0"/>
<feBlend mode="normal" in2="effect2_dropShadow_852_20754" result="effect3_dropShadow_852_20754"/>
<feColorMatrix in="SourceAlpha" type="matrix" values="0 0 0 0 0 0 0 0 0 0 0 0 0 0 0 0 0 0 127 0" result="hardAlpha"/>
<feOffset dy="12.5421"/>
<feGaussianBlur stdDeviation="5.15428"/>
<feColorMatrix type="matrix" values="0 0 0 0 0 0 0 0 0 0 0 0 0 0 0 0 0 0 0.0596107 0"/>
<feBlend mode="normal" in2="effect3_dropShadow_852_20754" result="effect4_dropShadow_852_20754"/>
<feColorMatrix in="SourceAlpha" type="matrix" values="0 0 0 0 0 0 0 0 0 0 0 0 0 0 0 0 0 0 127 0" result="hardAlpha"/>
<feOffset dy="23.4586"/>
<feGaussianBlur stdDeviation="9.64051"/>
<feColorMatrix type="matrix" values="0 0 0 0 0 0 0 0 0 0 0 0 0 0 0 0 0 0 0.0718854 0"/>
<feBlend mode="normal" in2="effect4_dropShadow_852_20754" result="effect5_dropShadow_852_20754"/>
<feColorMatrix in="SourceAlpha" type="matrix" values="0 0 0 0 0 0 0 0 0 0 0 0 0 0 0 0 0 0 127 0" result="hardAlpha"/>
<feOffset dy="56.151"/>
<feGaussianBlur stdDeviation="23.0758"/>
<feColorMatrix type="matrix" values="0 0 0 0 0 0 0 0 0 0 0 0 0 0 0 0 0 0 0.1 0"/>
<feBlend mode="normal" in2="effect5_dropShadow_852_20754" result="effect6_dropShadow_852_20754"/>
<feBlend mode="normal" in="SourceGraphic" in2="effect6_dropShadow_852_20754" result="shape"/>
</filter>
</defs>
</svg>
