<svg width="34" height="33" viewBox="0 0 34 33" fill="none" xmlns="http://www.w3.org/2000/svg">
<rect x="0.849609" width="32.3098" height="32.3098" rx="4.97074" fill="#06C987"/>
<path fill-rule="evenodd" clip-rule="evenodd" d="M25.549 14.4194H17.1892C17.1892 15.2888 17.1892 17.0276 17.1839 17.897H22.0281C21.8425 18.7664 21.1844 19.9835 20.2544 20.5964C20.2535 20.5956 20.2526 20.6016 20.2509 20.6008C19.0145 21.4171 17.3829 21.6023 16.1714 21.3589C14.2724 20.9816 12.7695 19.6045 12.1594 17.8552C12.1629 17.8526 12.1656 17.8283 12.1682 17.8266C11.7863 16.7416 11.7863 15.2888 12.1682 14.4194H12.1673C12.6594 12.8215 14.2075 11.3635 16.1092 10.9645C17.6387 10.6402 19.3644 10.9914 20.6337 12.179C20.8024 12.0138 22.9696 9.89773 23.1322 9.72559C18.796 5.79856 11.8529 7.18002 9.25494 12.2512H9.25405C9.25405 12.2512 9.25494 12.2512 9.24961 12.2607C7.96438 14.7515 8.01767 17.6866 9.25849 20.0583C9.25494 20.0609 9.25227 20.0626 9.24961 20.0652C10.3741 22.2474 12.4205 23.921 14.8861 24.5582C17.5054 25.2451 20.8388 24.7756 23.0718 22.756C23.0727 22.7569 23.0736 22.7577 23.0744 22.7586C24.9663 21.0546 26.1441 18.1517 25.549 14.4194Z" fill="#003346"/>
</svg>
