<svg width="33" height="33" viewBox="0 0 33 33" fill="none" xmlns="http://www.w3.org/2000/svg">
<rect x="0.425781" width="32.3098" height="32.3098" rx="4.97074" fill="#06C987"/>
<path fill-rule="evenodd" clip-rule="evenodd" d="M26.5237 26.0961H22.7V19.133C22.7 17.2228 21.8904 16.1573 20.4384 16.1573C18.8582 16.1573 17.9205 17.2676 17.9205 19.133V26.0961H14.0969V13.1628H17.9205V14.6173C17.9205 14.6173 19.1202 12.4266 21.8235 12.4266C24.5277 12.4266 26.5237 14.1437 26.5237 17.6974C26.5237 21.2501 26.5237 26.0961 26.5237 26.0961ZM8.50508 9.94094C7.47516 9.94094 6.64068 9.10609 6.64068 8.07654C6.64068 7.04774 7.47516 6.21289 8.50508 6.21289C9.53425 6.21289 10.3687 7.04774 10.3687 8.07654C10.3695 9.10609 9.53425 9.94094 8.50508 9.94094ZM6.64062 26.0958H10.3687V13.669H6.64062V26.0958Z" fill="#003346"/>
</svg>
