<svg width="80" height="61" viewBox="0 0 80 61" fill="none" xmlns="http://www.w3.org/2000/svg">
<path d="M10.682 42.34V52H9.702V44.286L6.258 52H5.544L2.1 44.314V52H1.12V42.34H2.156L5.894 50.712L9.632 42.34H10.682ZM12.4572 48.164C12.4572 47.38 12.6112 46.694 12.9192 46.106C13.2365 45.5087 13.6705 45.0513 14.2212 44.734C14.7812 44.4073 15.4112 44.244 16.1112 44.244C16.8392 44.244 17.4645 44.412 17.9872 44.748C18.5192 45.084 18.9018 45.5133 19.1352 46.036V44.356H20.1152V52H19.1352V50.306C18.8925 50.8287 18.5052 51.2627 17.9732 51.608C17.4505 51.944 16.8252 52.112 16.0972 52.112C15.4065 52.112 14.7812 51.9487 14.2212 51.622C13.6705 51.2953 13.2365 50.8333 12.9192 50.236C12.6112 49.6387 12.4572 48.948 12.4572 48.164ZM19.1352 48.178C19.1352 47.562 19.0092 47.0207 18.7572 46.554C18.5052 46.0873 18.1598 45.728 17.7212 45.476C17.2918 45.224 16.8158 45.098 16.2932 45.098C15.7518 45.098 15.2665 45.2193 14.8372 45.462C14.4078 45.7047 14.0672 46.0593 13.8152 46.526C13.5725 46.9833 13.4512 47.5293 13.4512 48.164C13.4512 48.7893 13.5725 49.34 13.8152 49.816C14.0672 50.2827 14.4078 50.642 14.8372 50.894C15.2665 51.1367 15.7518 51.258 16.2932 51.258C16.8158 51.258 17.2918 51.132 17.7212 50.88C18.1598 50.628 18.5052 50.2687 18.7572 49.802C19.0092 49.3353 19.1352 48.794 19.1352 48.178ZM24.9844 52.112C24.1071 52.112 23.3884 51.9113 22.8284 51.51C22.2778 51.0993 21.9698 50.544 21.9044 49.844H22.9124C22.9591 50.2733 23.1598 50.6233 23.5144 50.894C23.8784 51.1553 24.3638 51.286 24.9704 51.286C25.5024 51.286 25.9178 51.16 26.2164 50.908C26.5244 50.656 26.6784 50.3433 26.6784 49.97C26.6784 49.7087 26.5944 49.494 26.4264 49.326C26.2584 49.158 26.0438 49.0273 25.7824 48.934C25.5304 48.8313 25.1851 48.724 24.7464 48.612C24.1771 48.4627 23.7151 48.3133 23.3604 48.164C23.0058 48.0147 22.7024 47.7953 22.4504 47.506C22.2078 47.2073 22.0864 46.8107 22.0864 46.316C22.0864 45.9427 22.1984 45.5973 22.4224 45.28C22.6464 44.9627 22.9638 44.7107 23.3744 44.524C23.7851 44.3373 24.2518 44.244 24.7744 44.244C25.5958 44.244 26.2584 44.454 26.7624 44.874C27.2664 45.2847 27.5371 45.854 27.5744 46.582H26.5944C26.5664 46.134 26.3891 45.7747 26.0624 45.504C25.7451 45.224 25.3064 45.084 24.7464 45.084C24.2518 45.084 23.8504 45.2007 23.5424 45.434C23.2344 45.6673 23.0804 45.9567 23.0804 46.302C23.0804 46.6007 23.1691 46.848 23.3464 47.044C23.5331 47.2307 23.7618 47.38 24.0324 47.492C24.3031 47.5947 24.6671 47.7113 25.1244 47.842C25.6751 47.9913 26.1138 48.136 26.4404 48.276C26.7671 48.416 27.0471 48.6213 27.2804 48.892C27.5138 49.1627 27.6351 49.522 27.6444 49.97C27.6444 50.3807 27.5324 50.7493 27.3084 51.076C27.0844 51.3933 26.7718 51.6453 26.3704 51.832C25.9691 52.0187 25.5071 52.112 24.9844 52.112ZM30.7631 45.182V49.928C30.7631 50.3947 30.8518 50.7167 31.0291 50.894C31.2065 51.0713 31.5191 51.16 31.9671 51.16H32.8631V52H31.8131C31.1225 52 30.6091 51.8413 30.2731 51.524C29.9371 51.1973 29.7691 50.6653 29.7691 49.928V45.182H28.7051V44.356H29.7691V42.438H30.7631V44.356H32.8631V45.182H30.7631ZM41.3954 47.786C41.3954 48.122 41.386 48.3787 41.3674 48.556H35.0254C35.0534 49.1347 35.1934 49.6293 35.4454 50.04C35.6974 50.4507 36.0287 50.7633 36.4394 50.978C36.85 51.1833 37.298 51.286 37.7834 51.286C38.418 51.286 38.95 51.132 39.3794 50.824C39.818 50.516 40.1074 50.1007 40.2474 49.578H41.2834C41.0967 50.3247 40.6954 50.936 40.0794 51.412C39.4727 51.8787 38.7074 52.112 37.7834 52.112C37.0647 52.112 36.4207 51.9533 35.8514 51.636C35.282 51.3093 34.834 50.852 34.5074 50.264C34.19 49.6667 34.0314 48.9713 34.0314 48.178C34.0314 47.3847 34.19 46.6893 34.5074 46.092C34.8247 45.4947 35.268 45.0373 35.8374 44.72C36.4067 44.4027 37.0554 44.244 37.7834 44.244C38.5114 44.244 39.146 44.4027 39.6874 44.72C40.238 45.0373 40.658 45.4667 40.9474 46.008C41.246 46.54 41.3954 47.1327 41.3954 47.786ZM40.4014 47.758C40.4107 47.1887 40.294 46.7033 40.0514 46.302C39.818 45.9007 39.496 45.5973 39.0854 45.392C38.6747 45.1867 38.2267 45.084 37.7414 45.084C37.0134 45.084 36.3927 45.3173 35.8794 45.784C35.366 46.2507 35.0814 46.9087 35.0254 47.758H40.4014ZM44.1684 45.714C44.383 45.238 44.7097 44.8693 45.1484 44.608C45.5964 44.3467 46.1424 44.216 46.7864 44.216V45.238H46.5204C45.811 45.238 45.2417 45.4293 44.8124 45.812C44.383 46.1947 44.1684 46.834 44.1684 47.73V52H43.1884V44.356H44.1684V45.714ZM47.8126 48.178C47.8126 47.3847 47.9713 46.694 48.2886 46.106C48.606 45.5087 49.0446 45.0513 49.6046 44.734C50.1646 44.4073 50.804 44.244 51.5226 44.244C52.4653 44.244 53.24 44.4773 53.8466 44.944C54.4626 45.4107 54.8593 46.0453 55.0366 46.848H53.9866C53.856 46.2973 53.5713 45.868 53.1326 45.56C52.7033 45.2427 52.1666 45.084 51.5226 45.084C51.0093 45.084 50.5473 45.2007 50.1366 45.434C49.726 45.6673 49.3993 46.0173 49.1566 46.484C48.9233 46.9413 48.8066 47.506 48.8066 48.178C48.8066 48.85 48.9233 49.4193 49.1566 49.886C49.3993 50.3527 49.726 50.7027 50.1366 50.936C50.5473 51.1693 51.0093 51.286 51.5226 51.286C52.1666 51.286 52.7033 51.132 53.1326 50.824C53.5713 50.5067 53.856 50.068 53.9866 49.508H55.0366C54.8593 50.292 54.4626 50.922 53.8466 51.398C53.2306 51.874 52.456 52.112 51.5226 52.112C50.804 52.112 50.1646 51.9533 49.6046 51.636C49.0446 51.3093 48.606 50.852 48.2886 50.264C47.9713 49.6667 47.8126 48.9713 47.8126 48.178ZM56.3986 48.164C56.3986 47.38 56.5526 46.694 56.8606 46.106C57.1779 45.5087 57.6119 45.0513 58.1626 44.734C58.7226 44.4073 59.3526 44.244 60.0526 44.244C60.7806 44.244 61.4059 44.412 61.9286 44.748C62.4606 45.084 62.8432 45.5133 63.0766 46.036V44.356H64.0566V52H63.0766V50.306C62.8339 50.8287 62.4466 51.2627 61.9146 51.608C61.3919 51.944 60.7666 52.112 60.0386 52.112C59.3479 52.112 58.7226 51.9487 58.1626 51.622C57.6119 51.2953 57.1779 50.8333 56.8606 50.236C56.5526 49.6387 56.3986 48.948 56.3986 48.164ZM63.0766 48.178C63.0766 47.562 62.9506 47.0207 62.6986 46.554C62.4466 46.0873 62.1012 45.728 61.6626 45.476C61.2332 45.224 60.7572 45.098 60.2346 45.098C59.6932 45.098 59.2079 45.2193 58.7786 45.462C58.3492 45.7047 58.0086 46.0593 57.7566 46.526C57.5139 46.9833 57.3926 47.5293 57.3926 48.164C57.3926 48.7893 57.5139 49.34 57.7566 49.816C58.0086 50.2827 58.3492 50.642 58.7786 50.894C59.2079 51.1367 59.6932 51.258 60.2346 51.258C60.7572 51.258 61.2332 51.132 61.6626 50.88C62.1012 50.628 62.4466 50.2687 62.6986 49.802C62.9506 49.3353 63.0766 48.794 63.0766 48.178ZM67.2738 45.714C67.4885 45.238 67.8152 44.8693 68.2538 44.608C68.7018 44.3467 69.2478 44.216 69.8918 44.216V45.238H69.6258C68.9165 45.238 68.3472 45.4293 67.9178 45.812C67.4885 46.1947 67.2738 46.834 67.2738 47.73V52H66.2938V44.356H67.2738V45.714ZM70.9181 48.164C70.9181 47.38 71.0768 46.694 71.3941 46.106C71.7114 45.5087 72.1454 45.0513 72.6961 44.734C73.2561 44.4073 73.8861 44.244 74.5861 44.244C75.2581 44.244 75.8648 44.4073 76.4061 44.734C76.9474 45.0607 77.3441 45.4853 77.5961 46.008V41.64H78.5761V52H77.5961V50.292C77.3628 50.824 76.9801 51.2627 76.4481 51.608C75.9161 51.944 75.2908 52.112 74.5721 52.112C73.8721 52.112 73.2421 51.9487 72.6821 51.622C72.1314 51.2953 71.6974 50.8333 71.3801 50.236C71.0721 49.6387 70.9181 48.948 70.9181 48.164ZM77.5961 48.178C77.5961 47.562 77.4701 47.0207 77.2181 46.554C76.9661 46.0873 76.6208 45.728 76.1821 45.476C75.7528 45.224 75.2768 45.098 74.7541 45.098C74.2128 45.098 73.7274 45.2193 73.2981 45.462C72.8688 45.7047 72.5281 46.0593 72.2761 46.526C72.0334 46.9833 71.9121 47.5293 71.9121 48.164C71.9121 48.7893 72.0334 49.34 72.2761 49.816C72.5281 50.2827 72.8688 50.642 73.2981 50.894C73.7274 51.1367 74.2128 51.258 74.7541 51.258C75.2768 51.258 75.7528 51.132 76.1821 50.88C76.6208 50.628 76.9661 50.2687 77.2181 49.802C77.4701 49.3353 77.5961 48.794 77.5961 48.178Z" fill="#437D7D"/>
<path d="M53.9348 26.9471C53.9348 27.4328 53.602 27.7827 53.1245 27.7827C52.6326 27.7827 52.3143 27.4114 52.3143 26.9471C52.3143 26.4829 52.6326 26.1115 53.1245 26.1115C53.602 26.1115 53.9348 26.4829 53.9348 26.9471ZM31.4503 26.1115C30.9367 26.1115 30.6401 26.4829 30.6401 26.9471C30.6401 27.4114 30.9367 27.7827 31.4503 27.7827C31.9206 27.7827 32.2389 27.4328 32.2389 26.9471C32.2317 26.4829 31.9206 26.1115 31.4503 26.1115ZM39.9507 26.0901C39.5601 26.0901 39.3213 26.34 39.2635 26.7114H40.6452C40.5801 26.3043 40.3269 26.0901 39.9507 26.0901ZM47.7494 26.1115C47.2574 26.1115 46.9608 26.4829 46.9608 26.9471C46.9608 27.4114 47.2574 27.7827 47.7494 27.7827C48.2413 27.7827 48.5596 27.4328 48.5596 26.9471C48.5596 26.4829 48.2413 26.1115 47.7494 26.1115ZM55.4106 27.9756C55.4106 27.997 55.4323 28.0113 55.4323 28.0541C55.4323 28.0756 55.4106 28.0899 55.4106 28.1327C55.3889 28.1541 55.3889 28.1684 55.3744 28.1898C55.3527 28.2113 55.3382 28.2256 55.2948 28.2256C55.2731 28.247 55.2587 28.247 55.2153 28.247C55.1935 28.247 55.1791 28.247 55.1357 28.2256C55.114 28.2256 55.0995 28.2041 55.0778 28.1898C55.0561 28.1684 55.0416 28.1541 55.0416 28.1327C55.0199 28.097 55.0199 28.0756 55.0199 28.0541C55.0199 28.0184 55.0199 27.997 55.0416 27.9756C55.0416 27.9399 55.0633 27.9184 55.0778 27.897C55.0995 27.8756 55.114 27.8756 55.1357 27.8613C55.1718 27.8399 55.1935 27.8399 55.2153 27.8399C55.2514 27.8399 55.2731 27.8399 55.2948 27.8613C55.331 27.8827 55.3527 27.8827 55.3744 27.897C55.3961 27.9113 55.3889 27.9399 55.4106 27.9756ZM55.2514 28.0756C55.2876 28.0756 55.2876 28.0541 55.3093 28.0541C55.331 28.0327 55.331 28.0184 55.331 27.997C55.331 27.9756 55.331 27.9613 55.3093 27.9399C55.2876 27.9399 55.2731 27.9184 55.2297 27.9184H55.114V28.1684H55.1718V28.0684H55.1935L55.2731 28.1684H55.331L55.2514 28.0756V28.0756ZM60.67 3.42821V28.5684C60.67 30.461 59.1146 31.9966 57.1975 31.9966H22.4725C20.5554 31.9966 19 30.461 19 28.5684V3.42821C19 1.53555 20.5554 0 22.4725 0H57.1975C59.1146 0 60.67 1.53555 60.67 3.42821ZM23.63 13.3986C23.63 18.8623 28.1225 23.2904 33.6496 23.2904C35.6173 23.2904 37.5489 22.7047 39.1839 21.6405C33.91 17.4053 33.9462 9.41328 39.1839 5.17802C37.5489 4.1067 35.6173 3.52819 33.6496 3.52819C28.1225 3.52105 23.63 7.95629 23.63 13.3986ZM39.835 21.1692C44.9352 17.241 44.9135 9.58469 39.835 5.63511C34.7565 9.58469 34.7348 17.2482 39.835 21.1692ZM29.5405 26.6186C29.5405 25.9972 29.1281 25.5901 28.477 25.5687C28.1442 25.5687 27.7898 25.6687 27.551 26.0329C27.3774 25.7401 27.0808 25.5687 26.6684 25.5687C26.3935 25.5687 26.1186 25.6687 25.9016 25.9544V25.6401H25.3084V28.2613H25.9016C25.9016 26.9114 25.7207 26.1044 26.5527 26.1044C27.2906 26.1044 27.1459 26.8328 27.1459 28.2613H27.7174C27.7174 26.9543 27.5366 26.1044 28.3685 26.1044C29.1064 26.1044 28.9617 26.8186 28.9617 28.2613H29.5549V26.6186H29.5405ZM32.7887 25.6401H32.2172V25.9544C32.0219 25.7187 31.747 25.5687 31.3708 25.5687C30.6256 25.5687 30.0541 26.1543 30.0541 26.9471C30.0541 27.747 30.6256 28.3255 31.3708 28.3255C31.747 28.3255 32.0219 28.1898 32.2172 27.9399V28.2684H32.7887V25.6401ZM35.7186 27.4685C35.7186 26.3972 34.062 26.8828 34.062 26.3829C34.062 25.9758 34.9228 26.0401 35.4003 26.3043L35.639 25.8401C34.959 25.4044 33.4543 25.4116 33.4543 26.4257C33.4543 27.4471 35.1109 27.0185 35.1109 27.4971C35.1109 27.947 34.1343 27.9113 33.6134 27.5542L33.3602 28.0042C34.1705 28.547 35.7186 28.4327 35.7186 27.4685V27.4685ZM38.2796 28.1327L38.1204 27.647C37.8455 27.797 37.2378 27.9613 37.2378 27.3542V26.1686H38.1855V25.6401H37.2378V24.8402H36.6446V25.6401H36.0948V26.1615H36.6446V27.3542C36.6446 28.6112 37.8962 28.3827 38.2796 28.1327V28.1327ZM39.2418 27.1757H41.2312C41.2312 26.0187 40.6959 25.5616 39.9724 25.5616C39.2056 25.5616 38.6558 26.1258 38.6558 26.94C38.6558 28.4041 40.2907 28.6469 41.101 27.9542L40.8261 27.5256C40.2618 27.9827 39.4082 27.9399 39.2418 27.1757V27.1757ZM43.5173 25.6401C43.1845 25.4973 42.6781 25.5116 42.4177 25.9544V25.6401H41.8244V28.2613H42.4177V26.7829C42.4177 25.9544 43.1049 26.0615 43.3437 26.1829L43.5173 25.6401V25.6401ZM44.2841 26.9471C44.2841 26.1329 45.1233 25.8687 45.7816 26.3472L46.0565 25.883C45.2174 25.233 43.6909 25.5901 43.6909 26.9543C43.6909 28.3684 45.3114 28.6541 46.0565 28.0256L45.7816 27.5613C45.1161 28.0256 44.2841 27.747 44.2841 26.9471ZM49.1094 25.6401H48.5162V25.9544C47.9158 25.1687 46.3532 25.6116 46.3532 26.9471C46.3532 28.3184 47.9736 28.7112 48.5162 27.9399V28.2684H49.1094V25.6401V25.6401ZM51.5474 25.6401C51.3738 25.5544 50.7516 25.433 50.4478 25.9544V25.6401H49.8763V28.2613H50.4478V26.7829C50.4478 25.9972 51.0989 26.0472 51.3738 26.1829L51.5474 25.6401V25.6401ZM54.4629 24.5759H53.8914V25.9544C53.2981 25.1759 51.7283 25.5901 51.7283 26.9471C51.7283 28.3327 53.356 28.7041 53.8914 27.9399V28.2684H54.4629V24.5759ZM55.0127 19.2122V19.5408H55.0706V19.2122H55.208V19.1551H54.8752V19.2122H55.0127V19.2122ZM55.4902 28.0541C55.4902 28.0184 55.4902 27.9756 55.4685 27.9399C55.4468 27.9184 55.4323 27.8827 55.4106 27.8613C55.3889 27.8399 55.3527 27.8256 55.331 27.8042C55.2948 27.8042 55.2514 27.7827 55.2153 27.7827C55.1935 27.7827 55.1574 27.8042 55.114 27.8042C55.0778 27.8256 55.0561 27.8399 55.0344 27.8613C54.9982 27.8827 54.9765 27.9184 54.9765 27.9399C54.9548 27.9756 54.9548 28.0184 54.9548 28.0541C54.9548 28.0756 54.9548 28.1113 54.9765 28.1541C54.9765 28.1756 54.9982 28.2113 55.0344 28.2327C55.0561 28.2541 55.0706 28.2684 55.114 28.2898C55.1501 28.3113 55.1935 28.3113 55.2153 28.3113C55.2514 28.3113 55.2948 28.3113 55.331 28.2898C55.3527 28.2684 55.3889 28.2541 55.4106 28.2327C55.4323 28.2113 55.4468 28.1756 55.4685 28.1541C55.4902 28.1113 55.4902 28.0756 55.4902 28.0541ZM55.7217 19.148H55.6204L55.5046 19.3979L55.3889 19.148H55.2876V19.5336H55.3455V19.2408L55.4612 19.4908H55.5408L55.6421 19.2408V19.5336H55.7217V19.148V19.148ZM56.04 13.3986C56.04 7.95629 51.5474 3.52105 46.0204 3.52105C44.0526 3.52105 42.121 4.1067 40.4861 5.17088C45.7021 9.40614 45.7816 17.4196 40.4861 21.6334C42.121 22.7047 44.0671 23.2832 46.0204 23.2832C51.5474 23.2904 56.04 18.8623 56.04 13.3986V13.3986Z" fill="#356363"/>
</svg>
