<svg width="33" height="33" viewBox="0 0 33 33" fill="none" xmlns="http://www.w3.org/2000/svg">
<rect width="32.3098" height="32.3098" rx="4.97074" fill="#06C987"/>
<path fill-rule="evenodd" clip-rule="evenodd" d="M12.8266 24.0048C19.5974 24.0048 23.3008 17.9638 23.3008 12.7257C23.3008 12.5537 23.3008 12.3827 23.2901 12.2127C24.0105 11.6524 24.6322 10.9568 25.1265 10.1607C24.4555 10.4815 23.7422 10.6921 23.0129 10.7848C23.7808 10.2892 24.3559 9.51055 24.6313 8.5918C23.9082 9.05359 23.1178 9.37917 22.2933 9.55403C20.8992 7.95805 18.5675 7.88076 17.0845 9.38206C16.129 10.3501 15.7226 11.7934 16.0196 13.1701C13.0599 13.0097 10.3021 11.5046 8.43242 9.02848C7.45543 10.8399 7.95514 13.1566 9.5727 14.3197C8.98686 14.3014 8.41358 14.1314 7.90131 13.8241V13.8744C7.90221 15.7611 9.13758 17.3861 10.8547 17.76C10.3128 17.9194 9.74405 17.9426 9.1932 17.8276C9.67497 19.4429 11.0575 20.5491 12.632 20.581C11.3284 21.6842 9.71803 22.2832 8.06011 22.2813C7.76764 22.2803 7.47517 22.2619 7.18359 22.2243C8.86754 23.3874 10.826 24.0048 12.8266 24.0019" fill="#003346"/>
</svg>
