<svg width="42" height="62" viewBox="0 0 42 62" fill="none" xmlns="http://www.w3.org/2000/svg">
<path d="M14.876 42.2179L11.166 52.0039H10.046L6.336 42.2179H7.4L10.606 50.9399L13.84 42.2179H14.876ZM16.8385 42.9179C16.6425 42.9179 16.4745 42.8479 16.3345 42.7079C16.1945 42.5679 16.1245 42.3952 16.1245 42.1899C16.1245 41.9846 16.1945 41.8166 16.3345 41.6859C16.4745 41.5459 16.6425 41.4759 16.8385 41.4759C17.0345 41.4759 17.2025 41.5459 17.3425 41.6859C17.4825 41.8166 17.5525 41.9846 17.5525 42.1899C17.5525 42.3952 17.4825 42.5679 17.3425 42.7079C17.2025 42.8479 17.0345 42.9179 16.8385 42.9179ZM17.3285 44.3599V52.0039H16.3485V44.3599H17.3285ZM22.1797 52.1159C21.3024 52.1159 20.5837 51.9152 20.0237 51.5139C19.4731 51.1032 19.1651 50.5479 19.0997 49.8479H20.1077C20.1544 50.2772 20.3551 50.6272 20.7097 50.8979C21.0737 51.1592 21.5591 51.2899 22.1657 51.2899C22.6977 51.2899 23.1131 51.1639 23.4117 50.9119C23.7197 50.6599 23.8737 50.3472 23.8737 49.9739C23.8737 49.7126 23.7897 49.4979 23.6217 49.3299C23.4537 49.1619 23.2391 49.0312 22.9777 48.9379C22.7257 48.8352 22.3804 48.7279 21.9417 48.6159C21.3724 48.4666 20.9104 48.3172 20.5557 48.1679C20.2011 48.0186 19.8977 47.7992 19.6457 47.5099C19.4031 47.2112 19.2817 46.8146 19.2817 46.3199C19.2817 45.9466 19.3937 45.6012 19.6177 45.2839C19.8417 44.9666 20.1591 44.7146 20.5697 44.5279C20.9804 44.3412 21.4471 44.2479 21.9697 44.2479C22.7911 44.2479 23.4537 44.4579 23.9577 44.8779C24.4617 45.2886 24.7324 45.8579 24.7697 46.5859H23.7897C23.7617 46.1379 23.5844 45.7786 23.2577 45.5079C22.9404 45.2279 22.5017 45.0879 21.9417 45.0879C21.4471 45.0879 21.0457 45.2046 20.7377 45.4379C20.4297 45.6712 20.2757 45.9606 20.2757 46.3059C20.2757 46.6046 20.3644 46.8519 20.5417 47.0479C20.7284 47.2346 20.9571 47.3839 21.2277 47.4959C21.4984 47.5986 21.8624 47.7152 22.3197 47.8459C22.8704 47.9952 23.3091 48.1399 23.6357 48.2799C23.9624 48.4199 24.2424 48.6252 24.4757 48.8959C24.7091 49.1666 24.8304 49.5259 24.8397 49.9739C24.8397 50.3846 24.7277 50.7532 24.5037 51.0799C24.2797 51.3972 23.9671 51.6492 23.5657 51.8359C23.1644 52.0226 22.7024 52.1159 22.1797 52.1159ZM26.2365 48.1679C26.2365 47.3839 26.3905 46.6979 26.6985 46.1099C27.0158 45.5126 27.4498 45.0552 28.0005 44.7379C28.5605 44.4112 29.1905 44.2479 29.8905 44.2479C30.6185 44.2479 31.2438 44.4159 31.7665 44.7519C32.2985 45.0879 32.6811 45.5172 32.9145 46.0399V44.3599H33.8945V52.0039H32.9145V50.3099C32.6718 50.8326 32.2845 51.2666 31.7525 51.6119C31.2298 51.9479 30.6045 52.1159 29.8765 52.1159C29.1858 52.1159 28.5605 51.9526 28.0005 51.6259C27.4498 51.2992 27.0158 50.8372 26.6985 50.2399C26.3905 49.6426 26.2365 48.9519 26.2365 48.1679ZM32.9145 48.1819C32.9145 47.5659 32.7885 47.0246 32.5365 46.5579C32.2845 46.0912 31.9391 45.7319 31.5005 45.4799C31.0711 45.2279 30.5951 45.1019 30.0725 45.1019C29.5311 45.1019 29.0458 45.2232 28.6165 45.4659C28.1871 45.7086 27.8465 46.0632 27.5945 46.5299C27.3518 46.9872 27.2305 47.5332 27.2305 48.1679C27.2305 48.7932 27.3518 49.3439 27.5945 49.8199C27.8465 50.2866 28.1871 50.6459 28.6165 50.8979C29.0458 51.1406 29.5311 51.2619 30.0725 51.2619C30.5951 51.2619 31.0711 51.1359 31.5005 50.8839C31.9391 50.6319 32.2845 50.2726 32.5365 49.8059C32.7885 49.3392 32.9145 48.7979 32.9145 48.1819Z" fill="#437D7D"/>
<path d="M34.0124 14.2357C34.0124 14.2357 34.5623 16.8929 34.6853 17.45H32.2688C32.5075 16.8143 33.4264 14.3429 33.4264 14.3429C33.4119 14.3643 33.6651 13.6929 33.8098 13.2786L34.0124 14.2357ZM41.6744 3.42857V28.5715C41.6744 30.4644 40.1189 32.0001 38.2016 32.0001H3.47287C1.55556 32.0001 0 30.4644 0 28.5715V3.42857C0 1.53572 1.55556 0 3.47287 0H38.2016C40.1189 0 41.6744 1.53572 41.6744 3.42857ZM11.0336 21.3715L15.6062 10.2857H12.5313L9.68786 17.8572L9.37675 16.3214L8.36383 11.2214C8.19742 10.5143 7.68373 10.3143 7.04704 10.2857H2.36589L2.31525 10.5071C3.4584 10.7929 4.47855 11.2072 5.36847 11.7286L7.95866 21.3715H11.0336ZM17.8636 21.3858L19.6868 10.2857H16.7783L14.9623 21.3858H17.8636ZM27.9855 17.7572C28 16.4929 27.2186 15.5286 25.5473 14.7357C24.5272 14.2286 23.9049 13.8857 23.9049 13.3643C23.9194 12.8929 24.4331 12.4072 25.5762 12.4072C26.524 12.3857 27.2186 12.6072 27.7396 12.8286L28 12.95L28.398 10.55C27.8264 10.3286 26.9147 10.0786 25.7933 10.0786C22.9209 10.0786 20.9023 11.5929 20.8879 13.75C20.8662 15.3429 22.3349 16.2286 23.4346 16.7643C24.5561 17.3072 24.9395 17.6643 24.9395 18.1429C24.9251 18.8857 24.0279 19.2286 23.1959 19.2286C22.0383 19.2286 21.416 19.05 20.4682 18.6357L20.0848 18.4572L19.6796 20.9501C20.3597 21.2572 21.6186 21.5286 22.9209 21.5429C25.9742 21.5501 27.9638 20.0572 27.9855 17.7572ZM38.2016 21.3858L35.8574 10.2857H33.6073C32.9127 10.2857 32.3845 10.4857 32.0879 11.2072L27.7685 21.3858H30.8217C30.8217 21.3858 31.321 20.0144 31.4295 19.7215H35.1628C35.2496 20.1144 35.5101 21.3858 35.5101 21.3858H38.2016Z" fill="#356363"/>
</svg>
